<svg width="510" height="386" viewBox="0 0 510 386" fill="none" xmlns="http://www.w3.org/2000/svg">
<path d="M9.43115 325.208L-25.5527 407.377H46.5141L12.2299 325.208H9.43115ZM-14.7077 400.734L5.93276 352.481L26.2234 400.734H-14.7077Z" fill="#F9FAFB"/>
<path d="M140.271 325.208L105.287 407.377H177.704L143.42 325.208H140.271ZM116.132 400.734L136.773 352.481L157.063 400.734H116.132Z" fill="#F9FAFB"/>
<path d="M271.111 325.208L236.127 407.377H308.544L274.259 325.208H271.111ZM247.322 400.734L267.962 352.481L288.253 400.734H247.322Z" fill="#F9FAFB"/>
<path d="M584.217 -45.7757L576.87 -28.6426L569.873 -12.9082C569.523 -12.2089 569.173 -11.5095 569.173 -10.8102L561.127 8.07112H514.948L507.602 -9.06195C505.153 -14.6564 504.103 -18.8523 504.103 -21.2999C504.103 -23.3978 504.803 -24.7964 506.552 -26.195C508.301 -27.5936 511.45 -28.293 515.998 -28.6426H562.876V-31.7895C557.979 -32.1392 554.13 -33.5378 551.332 -35.6357C548.533 -37.7337 545.734 -43.3281 542.236 -51.0205L500.605 -150.323H497.456L455.476 -52.0695C454.426 -49.6219 453.377 -47.524 452.327 -45.426L446.38 -31.4398L437.984 -12.2088C437.634 -11.5095 437.284 -10.8102 437.284 -10.1109L429.238 8.77048H383.059L375.713 -8.36264C373.264 -13.9571 372.214 -18.153 372.214 -20.6006C372.214 -22.6985 372.914 -24.0971 374.663 -25.4957C376.412 -26.8943 379.561 -27.5936 384.109 -27.9433H430.987V-31.0902C426.089 -31.4399 422.241 -32.8385 419.442 -34.9364C416.644 -37.384 413.845 -42.6288 410.347 -50.3212L368.716 -149.623H365.567L334.432 -76.895L323.587 -51.3702C322.537 -48.9226 321.488 -46.8247 320.438 -44.7267L313.091 -27.5937L306.095 -11.8592C305.745 -11.1599 305.395 -10.4606 305.395 -9.76125L297.349 9.1201H251.17L243.823 -8.01297C241.374 -13.6075 240.325 -17.8033 240.325 -20.2509C240.325 -22.3488 241.025 -23.7475 242.774 -25.1461C244.523 -26.5447 247.672 -27.244 252.219 -27.5937H301.547V-30.7405C296.649 -31.0902 292.801 -32.4888 290.002 -34.5868C287.203 -37.0343 284.405 -42.2792 280.906 -49.9716L239.275 -149.274H236.127L194.146 -51.0205C193.097 -48.573 192.047 -46.475 190.998 -44.3771L185.05 -30.3909L176.654 -11.1599C176.304 -10.4606 175.955 -9.76126 175.955 -9.06195L167.908 9.8194H121.73L114.383 -7.31367C111.934 -12.9082 110.885 -17.104 110.885 -19.5516C110.885 -21.6495 111.584 -23.0481 113.333 -24.4467C115.083 -25.8454 118.231 -26.5447 122.779 -26.8944H169.657V-30.0412C164.76 -30.3909 160.911 -31.7895 158.113 -33.8875C155.314 -36.3351 152.515 -41.5798 149.017 -49.2723L107.386 -148.574H104.238L73.1019 -75.8461L62.2569 -50.3212C61.2074 -47.8736 60.1578 -45.7757 59.1083 -43.6778L51.7617 -26.5447L44.765 -10.8102C44.4151 -10.1109 44.0653 -9.41158 44.0653 -8.71227L36.019 10.1691H-10.1598L-17.5063 -6.96399C-19.9552 -12.5585 -21.0048 -16.7543 -21.0048 -19.2019C-21.0048 -21.2999 -20.3051 -22.6985 -18.5559 -24.0971C-16.8067 -25.4957 -13.6581 -26.195 -9.11023 -26.5447H37.7682V-29.6916C32.8705 -30.0412 29.0222 -31.4399 26.2235 -33.5378C23.4248 -35.9854 20.6261 -41.2302 17.1277 -48.9226L-24.5031 -148.225H-27.6517L-69.6324 -49.9716C-70.6819 -47.524 -71.7314 -45.4261 -72.7809 -43.3281L-78.7281 -29.3419L-87.1243 -10.1109C-87.4742 -9.41161 -87.824 -8.71228 -87.824 -8.01297L-93.7712 8.07112H-139.95L-147.297 -9.06195C-149.745 -14.6564 -150.795 -18.8523 -150.795 -21.2999C-150.795 -23.3978 -150.095 -24.7964 -148.346 -26.195C-146.597 -27.5936 -143.448 -28.293 -138.9 -28.6426H-92.0221V-31.7895C-96.9198 -32.1392 -100.768 -33.5378 -103.567 -35.6357C-106.365 -38.0833 -109.164 -43.3281 -112.663 -51.0205L-153.594 -150.323H-156.742L-187.878 -77.5943L-198.723 -52.0695C-199.772 -49.6219 -200.822 -47.524 -201.871 -45.426L-209.218 -28.293L-216.215 -12.5585C-216.565 -11.8592 -216.915 -11.1599 -216.915 -10.4605L-224.961 8.42081H-270.79L-278.136 -8.71227C-280.585 -14.3067 -281.635 -18.5026 -281.635 -20.9502C-281.635 -23.0481 -280.935 -24.4468 -279.186 -25.8454C-277.437 -27.244 -274.288 -27.9433 -269.74 -28.293H-222.862V-31.4398C-227.76 -31.7895 -231.608 -33.1881 -234.406 -35.2861C-237.205 -37.384 -240.004 -42.9785 -243.502 -50.6709L-284.433 -150.323H-287.582L-329.563 -52.0695C-330.612 -49.6219 -331.662 -47.524 -332.711 -45.426L-338.658 -31.4398L-347.055 -12.2088C-347.404 -11.5095 -347.754 -10.8102 -347.754 -10.1109L-355.801 8.77048H-401.629L-408.976 -8.36264C-411.425 -13.9571 -412.474 -18.153 -412.474 -20.6006C-412.474 -22.6985 -411.775 -24.0971 -410.026 -25.4957C-408.276 -26.8943 -405.128 -27.5936 -400.58 -27.9433H-353.702V-31.0902C-358.599 -31.4399 -362.447 -32.8385 -365.246 -34.9364C-368.045 -37.384 -370.844 -42.6288 -374.342 -50.3212L-415.273 -150.323H-418.422L-449.557 -77.5943V-58.0136L-445.359 -68.1536H-398.831L-391.484 -51.0205C-389.035 -45.4261 -387.986 -41.2302 -387.986 -38.7826C-387.986 -36.6847 -388.685 -35.2861 -390.435 -33.8875C-392.184 -32.4888 -395.332 -31.7895 -399.88 -31.4398H-447.458V-28.293C-442.561 -27.9433 -438.712 -26.5447 -435.914 -24.4467C-433.115 -21.9992 -430.316 -16.7543 -426.818 -9.06195L-385.187 90.24H-382.038L-340.058 -8.01297C-339.008 -10.4606 -337.959 -12.5585 -336.909 -14.6564L-330.962 -28.6426L-322.566 -47.8737C-322.216 -48.573 -321.866 -49.2722 -321.866 -49.9716L-313.82 -68.853H-267.641L-260.295 -51.7198C-257.846 -46.1254 -256.796 -41.9295 -256.796 -39.4819C-256.796 -37.384 -257.496 -35.9854 -259.245 -34.5868C-260.994 -33.1881 -264.143 -32.4888 -268.691 -32.1392H-316.269V-28.9923C-311.371 -28.6426 -307.523 -27.244 -304.724 -25.1461C-301.925 -22.6985 -299.127 -17.4537 -295.628 -9.76125L-253.997 89.5408H-251.199L-209.218 -8.71227C-208.169 -11.1599 -207.119 -13.2578 -206.07 -15.3557L-198.723 -32.4888L-191.726 -48.2233C-191.376 -48.9226 -191.026 -49.6219 -191.026 -50.3212L-187.178 -59.0626L-182.98 -69.2026H-136.801L-129.455 -52.0695C-127.006 -46.475 -125.956 -42.2792 -125.956 -39.8316C-125.956 -37.7337 -126.656 -36.335 -128.405 -34.9364C-130.154 -33.5378 -133.303 -32.8385 -137.851 -32.4888H-185.429V-29.3419C-180.531 -28.9923 -176.683 -27.5936 -173.884 -25.4957C-171.086 -23.0481 -168.287 -17.8033 -164.789 -10.1109L-123.158 89.1911H-120.009L-78.0285 -9.06195C-76.979 -11.5095 -75.9294 -13.6074 -74.8799 -15.7054L-68.9327 -29.6916L-60.5366 -48.9226C-60.1867 -49.6219 -59.8369 -50.3212 -59.8369 -51.0205L-51.7906 -69.9019H-5.61185L1.73477 -52.7688C4.18365 -47.1743 5.23315 -42.9785 5.23315 -40.5309C5.23315 -38.433 4.53351 -37.0344 2.7843 -35.6357C1.03513 -34.2371 -2.11346 -33.5378 -6.66135 -33.1881H-53.5398V-30.0412C-48.642 -29.6916 -44.7938 -28.2929 -41.9951 -26.195C-39.1964 -23.7474 -36.3977 -18.5026 -32.8993 -10.8102L8.73157 88.4918H11.8801L53.8607 -9.76125C54.9103 -12.2088 55.9598 -14.3068 57.0093 -16.4047L64.3559 -33.5378L71.3527 -49.2723C71.7025 -49.9716 72.0524 -50.6709 72.0524 -51.3702L75.9006 -60.1116L80.0987 -70.2516H126.277L133.624 -53.1185C136.073 -47.524 137.122 -43.3281 137.122 -40.8806C137.122 -38.7826 136.423 -37.384 134.674 -35.9854C132.924 -34.5867 129.776 -33.8874 125.228 -33.5378H78.3495V-30.3909C83.2472 -30.0413 87.0955 -28.6426 89.8942 -26.5447C92.6929 -24.0971 95.4916 -18.8523 98.99 -11.1599L140.621 88.1421H143.769L185.75 -10.1109C186.8 -12.5585 187.849 -14.6564 188.899 -16.7543L194.846 -30.7405L203.242 -49.9716C203.592 -50.6709 203.942 -51.3702 203.942 -52.0695L211.988 -70.9509H258.167L265.513 -53.8178C267.962 -48.2233 269.012 -44.0275 269.012 -41.5799C269.012 -39.4819 268.312 -38.0833 266.563 -36.6847C264.814 -35.286 261.665 -34.5867 257.117 -34.2371H210.239V-31.0902C215.137 -30.7406 218.985 -29.3419 221.783 -27.244C224.582 -24.7964 227.381 -19.5516 230.879 -11.8592L272.51 87.4428H275.659L317.639 -10.8102C318.689 -13.2578 319.738 -15.3557 320.788 -17.4536L328.134 -34.5868L335.131 -50.3212C335.481 -51.0205 335.831 -51.7198 335.831 -52.4191L339.679 -61.1605L343.877 -71.3005H390.056L397.403 -54.1674C399.851 -48.5729 400.901 -44.3771 400.901 -41.9295C400.901 -39.8316 400.201 -38.433 398.452 -37.0343C396.703 -35.6357 393.554 -34.9364 389.006 -34.5868H342.128V-31.4398C347.026 -31.0902 350.874 -29.6916 353.673 -27.5937C356.471 -25.1461 359.27 -19.9012 362.768 -12.2088L404.399 87.0932H407.548L449.529 -11.1599C450.578 -13.6075 451.628 -15.7054 452.677 -17.8033L458.624 -31.7895L467.021 -51.0205C467.37 -51.7198 467.72 -52.4192 467.72 -53.1185L475.766 -71.9998H521.945L529.292 -54.8668C531.741 -49.2723 532.79 -45.0764 532.79 -42.6288C532.79 -40.5309 532.091 -39.1323 530.341 -37.7336C528.592 -36.335 525.444 -35.6357 520.896 -35.2861H474.017V-32.1392C478.915 -31.7895 482.763 -30.3909 485.562 -28.293C488.361 -25.8454 491.159 -20.6006 494.658 -12.9082L536.289 86.3938H539.437L581.418 -11.8592C582.467 -14.3068 583.517 -16.4047 584.566 -18.5026L591.913 -35.6357L598.91 -51.3702C599.26 -52.0695 599.609 -52.7688 599.609 -53.4681L603.458 -62.2095V-81.7902L592.613 -56.2654C586.316 -49.6219 585.266 -47.524 584.217 -45.7757ZM-442.561 -74.7971L-421.92 -123.049L-401.629 -74.7971H-442.561ZM-379.24 62.967L-399.181 14.7146H-358.249L-379.24 62.967ZM-311.371 -74.7971L-290.731 -123.049L-270.44 -74.7971H-311.371ZM-248.05 62.967L-268.341 14.7146H-227.41L-248.05 62.967ZM-180.531 -74.7971L-159.891 -123.049L-139.6 -74.7971H-180.531ZM-117.21 62.967L-137.501 14.7146H-96.5699L-117.21 62.967ZM-49.6915 -74.7971L-29.0511 -123.049L-8.76038 -74.7971H-49.6915ZM13.6293 62.967L-6.31152 14.7146H34.6196L13.6293 62.967ZM81.498 -74.7971L102.139 -123.049L122.429 -74.7971H81.498ZM144.819 62.967L124.528 14.7146H165.459L144.819 62.967ZM212.338 -74.7971L232.978 -123.049L253.269 -74.7971H212.338ZM275.659 62.967L255.368 14.7146H296.299L275.659 62.967ZM343.178 -74.7971L363.818 -123.049L384.109 -74.7971H343.178ZM406.498 62.967L386.208 14.7146H427.489L406.498 62.967ZM474.367 -74.7971L495.008 -123.049L515.298 -74.7971H474.367ZM537.688 62.967L517.397 14.7146H558.328L537.688 62.967Z" fill="#F9FAFB"/>
<path d="M596.811 30.4487L601.009 40.5888V8.0708H599.959L555.18 106.324C554.13 108.771 553.081 110.869 552.031 112.967L544.685 130.1L537.688 145.835C537.338 146.534 536.988 147.233 536.988 147.933L528.942 166.814H482.763L475.417 149.681C472.968 144.087 471.918 139.891 471.918 137.443C471.918 135.345 472.618 133.947 474.367 132.548C476.116 131.149 479.265 130.45 483.813 130.1H530.691V126.953C525.793 126.604 521.945 125.205 519.146 123.107C516.348 120.66 513.549 115.415 510.051 107.722L468.42 8.42048H465.971L423.99 106.674C422.941 109.121 421.891 111.219 420.842 113.317L414.894 127.303L406.498 146.534C406.148 147.233 405.799 147.933 405.799 148.632L397.752 167.513H351.574L344.227 150.38C341.778 144.786 340.729 140.59 340.729 138.142C340.729 136.045 341.428 134.646 343.177 133.247C344.927 131.849 348.075 131.149 352.623 130.8H399.502V127.653C394.604 127.303 390.756 125.905 387.957 123.807C385.158 121.359 382.359 116.114 378.861 108.422L337.23 9.11978H334.082L292.101 107.373C291.051 109.82 290.002 111.918 288.952 114.016L281.606 131.149L274.609 146.884C274.259 147.583 273.909 148.282 273.909 148.982L265.863 167.863H219.684L212.338 150.73C209.889 145.136 208.839 140.94 208.839 138.492C208.839 136.394 209.539 134.996 211.288 133.597C213.037 132.198 216.186 131.499 220.734 131.149H267.612V128.002C262.715 127.653 258.866 126.254 256.068 124.156C253.269 121.709 250.47 116.464 246.972 108.771L205.341 9.46945H202.192L160.212 107.722C159.162 110.17 158.113 112.268 157.063 114.366L151.116 128.352L142.72 147.583C142.37 148.282 142.02 148.982 142.02 149.681L133.974 168.562H87.7951L80.4485 151.429C77.9996 145.835 76.9501 141.639 76.9501 139.191C76.9501 137.093 77.6498 135.695 79.399 134.296C81.1481 132.898 84.2967 132.198 88.8446 131.849H135.723V128.702C130.825 128.352 126.977 126.953 124.178 124.856C121.38 122.408 118.581 117.163 115.083 109.471L73.4517 10.1688H70.3032L28.3225 108.422C27.273 110.869 26.2234 112.967 25.174 115.065L17.8274 132.198L10.8306 147.933C10.4807 148.632 10.1309 149.331 10.1309 150.031L2.08459 168.912H-44.0941L-51.4407 151.779C-53.8896 146.185 -54.9391 141.989 -54.9391 139.541C-54.9391 137.443 -54.2395 136.045 -52.4903 134.646C-50.7411 133.247 -47.5925 132.548 -43.0446 132.198H3.8338V129.051C-1.06393 128.702 -4.91217 127.303 -7.71088 125.205C-10.5096 122.758 -13.3083 117.513 -16.8067 109.82L-58.4375 10.5184H-61.5861L-103.567 108.771C-104.616 111.219 -105.666 113.317 -106.715 115.415L-112.663 129.401L-121.059 148.632C-121.409 149.331 -121.758 150.031 -121.758 150.73L-129.805 169.611H-172.135L-179.482 152.478C-181.931 146.884 -182.98 142.688 -182.98 140.24C-182.98 138.142 -182.28 136.744 -180.531 135.345C-178.782 133.947 -175.634 133.247 -171.086 132.898H-124.207V129.751C-129.105 129.401 -132.953 128.002 -135.752 125.905C-138.551 123.457 -141.349 118.212 -144.848 110.52L-185.429 8.0708H-188.578L-230.558 106.324C-231.608 108.771 -232.657 110.869 -233.707 112.967L-241.053 130.1L-248.05 145.835C-248.4 146.534 -248.75 147.233 -248.75 147.933L-256.796 166.814H-302.975L-310.322 149.681C-312.77 144.087 -313.82 139.891 -313.82 137.443C-313.82 135.345 -313.12 133.947 -311.371 132.548C-309.622 131.149 -306.473 130.45 -301.925 130.1H-255.047V126.953C-259.945 126.604 -263.793 125.205 -266.592 123.107C-269.39 120.66 -272.189 115.415 -275.687 107.722L-316.619 8.0708H-319.767L-361.748 106.324C-362.797 108.771 -363.847 110.869 -364.896 112.967L-370.844 126.953L-379.24 146.184C-379.59 146.884 -379.939 147.583 -379.939 148.282L-387.636 166.814H-433.815L-441.161 149.681C-443.61 144.087 -444.66 139.891 -444.66 137.443C-444.66 135.345 -443.96 133.947 -442.211 132.548C-440.462 131.149 -437.313 130.45 -432.765 130.1H-385.887V126.953C-390.784 126.604 -394.633 125.205 -397.431 123.107C-400.23 120.66 -403.029 115.415 -406.527 107.722L-447.458 8.0708H-449.557V45.8336L-433.815 83.5963H-449.557V90.2397H-431.366L-424.019 107.373C-421.57 112.967 -420.521 117.163 -420.521 119.611C-420.521 121.709 -421.22 123.107 -422.97 124.506C-424.719 125.905 -427.867 126.604 -432.415 126.953H-449.557V172.758L-417.722 248.983H-414.573L-372.593 150.73C-371.543 148.282 -370.494 146.184 -369.444 144.087L-363.497 130.1L-355.101 110.869C-354.751 110.17 -354.401 109.471 -354.401 108.771L-346.355 89.89H-300.176L-292.83 107.023C-290.381 112.618 -289.331 116.814 -289.331 119.261C-289.331 121.359 -290.031 122.758 -291.78 124.156C-293.529 125.555 -296.678 126.254 -301.226 126.604H-348.104V129.751C-343.206 130.1 -339.358 131.499 -336.559 133.597C-333.761 136.044 -330.962 141.289 -327.464 148.982L-285.833 248.284H-282.684L-240.704 150.031C-239.654 147.583 -238.605 145.485 -237.555 143.387L-230.208 126.254L-223.212 110.52C-222.862 109.82 -222.512 109.121 -222.512 108.422L-214.466 89.5405H-168.637L-161.29 106.674C-158.841 112.268 -157.792 116.464 -157.792 118.911C-157.792 121.009 -158.491 122.408 -160.241 123.807C-161.99 125.205 -165.138 125.905 -169.686 126.254H-216.915V129.401C-212.017 129.751 -208.169 131.149 -205.37 133.247C-202.571 135.345 -199.772 140.94 -196.274 148.632L-186.828 171.36L-154.993 247.584H-151.845L-109.864 149.331C-108.814 146.884 -107.765 144.786 -106.715 142.688L-100.768 128.702L-92.3719 109.471C-92.0221 108.771 -91.6722 108.072 -91.6722 107.373L-83.6259 88.4914H-37.4472L-30.1006 105.624C-27.6517 111.219 -26.6022 115.415 -26.6022 117.862C-26.6022 119.96 -27.3019 121.359 -29.0511 122.758C-30.8003 124.156 -33.9488 124.856 -38.4967 125.205H-85.3751V128.352C-80.4774 128.702 -76.6292 130.1 -73.8304 132.198C-71.0317 134.296 -68.233 139.891 -64.7346 147.583L-23.1038 246.885H-19.9553L22.0254 148.632C23.0749 146.185 24.1244 144.087 25.174 141.989L32.5206 124.856L39.5174 109.121C39.8672 108.422 40.217 107.723 40.217 107.023L48.2633 88.1417H94.0922L101.439 105.275C103.888 110.869 104.937 115.065 104.937 117.513C104.937 119.611 104.238 121.009 102.488 122.408C100.739 123.807 97.5906 124.506 93.0427 124.856H45.8145V128.002C50.7122 128.352 54.5604 129.751 57.3591 131.849C60.1578 133.947 62.9565 139.541 66.455 147.234L75.9006 169.961L107.736 246.186H110.884L152.865 147.933C153.915 145.485 154.964 143.387 156.014 141.289L161.961 127.303L170.357 108.072C170.707 107.373 171.057 106.673 171.057 105.974L179.103 87.0928H225.282L232.628 104.226C235.077 109.82 236.127 114.016 236.127 116.464C236.127 118.562 235.427 119.96 233.678 121.359C231.929 122.758 228.78 123.457 224.232 123.807H177.354V126.953C182.252 127.303 186.1 128.702 188.899 130.8C191.697 132.898 194.496 138.492 197.994 146.184L239.625 245.486H242.774L284.754 147.234C285.804 144.786 286.853 142.688 287.903 140.59L295.25 123.457L302.246 107.722C302.596 107.023 302.946 106.324 302.946 105.624L310.992 86.7431H356.821L364.168 103.876C366.617 109.471 367.666 113.667 367.666 116.114C367.666 118.212 366.966 119.611 365.217 121.009C363.468 122.408 360.32 123.107 355.772 123.457H308.543V126.604C313.441 126.953 317.289 128.352 320.088 130.45C322.887 132.548 325.686 138.142 329.184 145.835L338.63 168.562L370.465 244.787H373.613L415.594 146.534C416.644 144.087 417.693 141.989 418.743 139.891L424.69 125.905L433.086 106.674C433.436 105.974 433.786 105.275 433.786 104.576L441.832 85.6942H488.011L495.357 102.827C497.806 108.422 498.856 112.618 498.856 115.065C498.856 117.163 498.156 118.562 496.407 119.96C494.658 121.359 491.509 122.058 486.961 122.408H440.083V125.555C444.981 125.905 448.829 127.303 451.628 129.401C454.426 131.499 457.225 137.093 460.723 144.786L502.354 244.088H505.503L547.483 145.835C548.533 143.387 549.582 141.289 550.632 139.191L557.979 122.058L564.975 106.324C565.325 105.625 565.675 104.925 565.675 104.226L573.721 85.3446H601.359V78.7011H576.17L596.811 30.4487ZM-411.075 221.36L-431.366 173.108H-390.435L-411.075 221.36ZM-343.556 83.5963L-322.916 35.3439L-302.625 83.5963H-343.556ZM-280.235 221.36L-300.526 173.108H-259.595L-280.235 221.36ZM-187.528 83.5963H-212.716L-191.726 35.6935L-187.528 45.8336L-171.785 83.5963H-187.528ZM-149.396 221.36L-169.686 173.108H-128.755L-149.396 221.36ZM-81.5269 83.5963L-60.8864 35.3439L-40.5957 83.5963H-81.5269ZM-18.2061 221.36L-38.4967 173.108H2.43442L-18.2061 221.36ZM74.5012 83.2466V83.5963H49.3129L69.9533 35.3439L74.1514 45.4839L89.8941 83.2466H74.5012ZM112.634 221.36L92.343 173.108H133.274L112.634 221.36ZM180.153 83.5963L200.793 35.3439L221.084 83.5963H180.153ZM243.473 221.36L223.183 173.108H264.114L243.473 221.36ZM336.181 83.2466V83.5963H310.992L331.633 35.3439L335.831 45.4839L351.574 83.2466H336.181ZM374.313 221.36L354.022 173.108H394.954L374.313 221.36ZM442.182 83.5963L462.822 35.3439L483.113 83.5963H442.182ZM505.503 221.36L485.212 173.108H526.143L505.503 221.36Z" fill="#F9FAFB"/>
<path d="M574.421 305.627C571.972 300.033 570.923 295.837 570.923 293.389C570.923 291.291 571.622 289.893 573.371 288.494C575.121 287.096 578.269 286.396 583.167 286.047H598.21V235.696L568.124 164.017H564.975V166.814L522.995 265.067C521.945 267.515 520.896 269.613 519.846 271.711L512.5 288.844L505.503 304.578C505.153 305.278 504.803 305.977 504.803 306.676L496.757 325.558H450.578L443.231 308.425C440.783 302.83 439.733 298.634 439.733 296.187C439.733 294.089 440.433 292.69 442.182 291.291C443.931 289.893 447.08 289.194 451.977 288.844H498.856V285.697C493.958 285.347 490.11 283.949 487.311 281.851C484.512 279.403 481.714 274.158 478.215 266.466L437.284 166.814H434.136L392.155 265.067C391.105 267.515 390.056 269.613 389.006 271.711L381.66 288.844L374.663 304.578C374.313 305.278 373.963 305.977 373.963 306.676L365.917 325.558H319.738L312.392 308.425C309.943 302.83 308.893 298.634 308.893 296.187C308.893 294.089 309.593 292.69 311.342 291.291C313.091 289.893 316.24 289.194 321.138 288.844H368.016V285.697C363.118 285.347 359.27 283.949 356.471 281.851C353.673 279.403 350.874 274.158 347.376 266.466L335.831 238.843L305.745 167.164H302.596L260.616 265.417C259.566 267.865 258.517 269.963 257.467 272.06L250.12 289.194L243.124 304.928C242.774 305.627 242.424 306.327 242.424 307.026L234.378 325.907H188.199L180.852 308.774C178.403 303.18 177.354 298.984 177.354 296.536C177.354 294.438 178.054 293.04 179.803 291.641C181.552 290.243 184.701 289.543 189.598 289.194H236.477V286.047C231.579 285.697 227.731 284.298 224.932 282.2C222.133 279.753 219.335 274.508 215.836 266.816L175.255 166.814H172.106L130.126 264.718C129.076 267.165 128.027 269.263 126.977 271.361L119.63 288.494L112.634 304.229C112.284 304.928 111.934 305.627 111.934 306.327L103.888 325.208H57.709L50.3624 308.075C47.9135 302.48 46.864 298.285 46.864 295.837C46.864 293.739 47.5637 292.34 49.3129 290.942C51.0621 289.543 54.2106 288.844 59.1083 288.494H105.987V285.347C101.089 284.998 97.2408 283.599 94.4421 281.501C91.6434 279.054 88.8447 273.809 85.3463 266.116L73.8016 238.494L43.7155 166.814H40.5669L-1.41376 265.067C-2.46326 267.515 -3.51282 269.613 -4.56235 271.711L-11.9089 288.844L-18.9057 304.578C-19.2556 305.278 -19.6054 305.977 -19.6054 306.676L-27.6517 325.558H-73.8304L-81.177 308.425C-83.6259 302.83 -84.6754 298.634 -84.6754 296.187C-84.6754 294.089 -83.9757 292.69 -82.2266 291.291C-80.4774 289.893 -77.3288 289.194 -72.4311 288.844H-25.5527V285.697C-30.4504 285.347 -34.2986 283.949 -37.0973 281.851C-39.8961 279.403 -42.6948 274.158 -46.1931 266.466L-86.7745 166.814H-89.923L-131.904 265.067C-132.953 267.515 -134.003 269.613 -135.052 271.711L-142.399 288.844L-149.396 304.578C-149.745 305.278 -150.095 305.977 -150.095 306.676L-158.142 325.558H-204.32L-211.667 308.425C-214.116 302.83 -215.165 298.634 -215.165 296.187C-215.165 294.089 -214.466 292.69 -212.716 291.291C-210.967 289.893 -207.819 289.194 -202.921 288.844H-156.043V285.697C-160.94 285.347 -164.789 283.949 -167.587 281.851C-170.386 279.403 -173.185 274.158 -176.683 266.466L-188.228 238.843L-217.614 166.814H-220.763L-262.743 265.067C-263.793 267.515 -264.842 269.613 -265.892 271.711L-273.239 288.844L-280.235 304.578C-280.585 305.278 -280.935 305.977 -280.935 306.676L-288.981 325.558H-334.81L-342.157 308.425C-344.606 302.83 -345.655 298.634 -345.655 296.187C-345.655 294.089 -344.956 292.69 -343.206 291.291C-341.457 289.893 -338.309 289.194 -333.411 288.844H-286.532V285.697C-291.43 285.347 -295.278 283.949 -298.077 281.851C-300.876 279.403 -303.675 274.158 -307.173 266.466L-348.454 166.814H-351.602L-393.583 265.067C-394.633 267.515 -395.682 269.613 -396.732 271.711L-404.078 288.844L-411.075 304.578C-411.425 305.278 -411.775 305.977 -411.775 306.676L-419.821 325.558H-449.557V332.201H-422.62L-443.26 380.104L-449.557 365.069V407.377H-446.409L-404.428 309.474C-403.379 307.026 -402.329 304.928 -401.28 302.83L-393.933 285.697L-386.936 269.962C-386.586 269.263 -386.237 268.564 -386.237 267.865L-378.19 248.983H-332.012L-324.665 266.116C-322.216 271.711 -321.167 275.907 -321.167 278.354C-321.167 280.452 -321.866 281.851 -323.615 283.249C-325.365 284.648 -328.513 285.347 -333.411 285.697H-380.639V288.844C-375.741 289.194 -371.893 290.592 -369.094 292.69C-366.296 294.788 -363.497 300.383 -359.999 308.075L-318.368 407.027H-315.219L-273.239 309.124C-272.189 306.676 -271.14 304.578 -270.09 302.48L-262.743 285.347L-255.747 269.613C-255.397 268.914 -255.047 268.214 -255.047 267.515L-247.001 248.634H-200.822L-193.475 265.767C-191.026 271.361 -189.977 275.557 -189.977 278.005C-189.977 280.103 -190.677 281.501 -192.426 282.9C-194.175 284.298 -197.324 284.998 -202.221 285.347H-249.799V288.494C-244.902 288.844 -241.053 290.243 -238.255 292.34C-235.456 294.788 -232.657 300.033 -229.159 307.725L-187.528 406.678H-184.379L-142.399 308.774C-141.349 306.327 -140.3 304.229 -139.25 302.131L-131.904 284.998L-124.907 269.263C-124.557 268.564 -124.207 267.865 -124.207 267.165L-116.161 248.284H-69.9822L-62.6356 265.417C-60.1867 271.011 -59.1372 275.207 -59.1372 277.655C-59.1372 279.753 -59.8369 281.151 -61.5861 282.55C-63.3352 283.949 -66.4838 284.648 -71.3816 284.998H-118.61V288.145C-113.712 288.494 -109.864 289.893 -107.065 291.991C-104.266 294.089 -101.468 299.683 -97.9693 307.376L-56.3385 406.328H-53.1899L-11.2093 308.425C-10.1597 305.977 -9.11023 303.879 -8.06073 301.781L-0.714081 284.648L6.28268 268.914C6.63254 268.214 6.98236 267.515 6.98236 266.816L15.0287 247.934H61.2074L68.554 265.067C71.0029 270.662 72.0524 274.858 72.0524 277.305C72.0524 279.403 71.3527 280.802 69.6035 282.2C67.8543 283.599 64.7058 284.298 59.808 284.648H12.9296V287.795C17.8274 288.145 21.6756 289.543 24.4743 291.641C27.273 294.089 30.0717 299.334 33.5701 307.026L75.2009 405.978H78.3495L120.33 308.075C121.38 305.627 122.429 303.529 123.479 301.431L130.825 284.298L137.822 268.564C138.172 267.865 138.522 267.165 138.522 266.466L146.568 247.585H192.747L200.093 264.718C202.542 270.312 203.592 274.508 203.592 276.956C203.592 279.054 202.892 280.452 201.143 281.851C199.394 283.249 196.245 283.949 191.347 284.298H144.469V287.445C149.367 287.795 153.215 289.194 156.014 291.291C158.812 293.389 161.611 298.984 165.109 306.676L206.74 405.629H209.889L251.87 307.725C252.919 305.278 253.969 303.18 255.018 301.082L262.365 283.949L269.362 268.214C269.711 267.515 270.061 266.816 270.061 266.116L278.107 247.235H322.537L329.884 264.368C332.333 269.963 333.382 274.158 333.382 276.606C333.382 278.704 332.682 280.103 330.933 281.501C329.184 282.9 326.035 283.599 321.138 283.949H274.259V287.096C279.157 287.445 283.005 288.844 285.804 290.942C288.603 293.389 291.401 298.634 294.9 306.327L336.531 405.279H339.679L381.66 307.376C382.709 304.928 383.759 302.83 384.808 300.732L392.155 283.599L399.152 267.865C399.502 267.165 399.851 266.466 399.851 265.767L407.898 246.885H454.076L461.423 264.018C463.872 269.613 464.921 273.809 464.921 276.256C464.921 278.354 464.222 279.753 462.473 281.151C460.723 282.55 457.575 283.249 452.677 283.599H405.799V286.746C410.696 287.096 414.545 288.494 417.343 290.592C420.142 293.04 422.941 298.285 426.439 305.977L468.07 404.929H471.219L513.199 307.026C514.249 304.578 515.298 302.48 516.348 300.383L523.694 283.249L530.691 267.515C531.041 266.816 531.391 266.116 531.391 265.417L539.437 246.536H585.616L592.963 263.669C595.411 269.263 596.461 273.459 596.461 275.907C596.461 278.005 595.761 279.403 594.012 280.802C592.263 282.2 589.114 282.9 584.217 283.249H535.939V286.396C540.837 286.746 544.685 288.145 547.483 290.243C550.282 292.69 553.081 297.935 556.579 305.627L598.21 404.58V362.621L584.217 329.404H598.21V322.76H581.768L574.421 305.627ZM-375.741 242.34L-355.101 194.087L-334.81 242.34H-375.741ZM-312.071 380.104L-332.361 331.851H-291.43L-312.071 380.104ZM-244.552 242.34L-223.911 194.087L-203.621 242.34H-244.552ZM-181.231 380.104L-187.528 365.069L-201.522 331.851H-160.59L-181.231 380.104ZM-113.712 242.34L-93.0716 194.087L-72.7809 242.34H-113.712ZM-50.3912 380.104L-70.6819 331.851H-29.7507L-50.3912 380.104ZM17.1277 242.34L37.7682 194.087L58.0589 242.34H17.1277ZM80.4485 380.104L74.1514 365.069L60.1579 331.851H101.089L80.4485 380.104ZM148.317 242.34L168.958 194.087L189.248 242.34H148.317ZM211.638 380.104L191.347 331.851H232.279L211.638 380.104ZM279.157 242.34L299.797 194.087L320.088 242.34H279.157ZM342.478 380.104L336.181 365.069L322.187 331.851H363.118L342.478 380.104ZM409.997 242.34L430.637 194.087L450.928 242.34H409.997ZM473.318 380.104L453.027 331.851H493.958L473.318 380.104ZM541.186 242.34L561.827 194.087L582.117 242.34H541.186Z" fill="#F9FAFB"/>
<path d="M401.95 325.208L366.967 407.377H439.383L405.099 325.208H401.95ZM378.161 400.734L398.802 352.481L419.093 400.734H378.161Z" fill="#F9FAFB"/>
<path d="M533.14 325.208L498.156 407.377H570.573L536.288 325.208H533.14ZM509.001 400.734L529.642 352.481L549.932 400.734H509.001Z" fill="#F9FAFB"/>
</svg>
