<svg width="477" height="789" viewBox="0 0 477 789" fill="none" xmlns="http://www.w3.org/2000/svg">
<path d="M-433.465 215.6L-427.518 201.614L-419.121 182.732C-419.121 182.033 -418.772 181.334 -418.422 180.634L-410.515 162.102H-364.197L-356.85 179.236C-354.401 184.83 -353.352 189.026 -353.352 191.474C-353.352 193.571 -354.051 194.97 -355.801 196.369C-357.55 197.767 -360.698 198.467 -365.246 198.816H-412.474V201.614C-407.577 201.963 -403.728 203.362 -400.93 205.46C-398.131 207.907 -395.332 213.152 -391.834 220.845L-350.203 320.146H-347.055L-305.074 221.893C-304.024 219.446 -302.975 217.348 -301.925 215.25L-294.579 198.117L-287.582 182.382C-287.232 181.683 -286.882 180.984 -286.882 180.285L-279.151 162.102H-233.007L-225.66 179.236C-223.212 184.83 -222.162 189.026 -222.162 191.474C-222.162 193.571 -222.862 194.97 -224.611 196.369C-226.36 197.767 -229.509 198.467 -234.406 198.816V198.467H-281.635V201.614C-276.737 201.963 -272.889 203.362 -270.09 205.46C-267.291 207.907 -264.493 213.152 -260.994 220.845L-219.713 320.496H-216.565L-187.528 252.663L-174.584 222.243C-173.535 219.796 -172.485 217.698 -171.435 215.6L-165.488 201.614L-157.092 182.382C-156.742 181.683 -156.392 180.984 -156.392 180.285L-148.661 162.102H-102.517L-95.1706 179.236C-92.7217 184.83 -91.6722 189.026 -91.6722 191.474C-91.6722 193.571 -92.3719 194.97 -94.1211 196.369C-95.8703 197.767 -99.0188 198.467 -103.567 198.816H-150.795V201.614C-145.897 201.963 -142.049 203.362 -139.25 205.46C-136.452 207.558 -133.653 213.152 -130.154 220.845L-88.5237 320.146H-85.3751L-43.3944 221.893C-42.3449 219.446 -41.2954 217.348 -40.2459 215.25L-32.8993 198.117L-25.9025 182.382C-25.5527 181.683 -25.2028 180.984 -25.2028 180.285L-17.4714 162.102H28.6724L36.019 179.236C38.4679 184.83 39.5174 189.026 39.5174 191.474C39.5174 193.571 38.8177 194.97 37.0685 196.369C35.3543 197.732 32.3107 198.432 27.6228 198.781V198.467H-19.2556V201.614C-14.3578 201.963 -10.5096 203.362 -7.71085 205.46C-4.91214 207.907 -2.11346 213.152 1.38492 220.845L43.0158 320.146H46.1643L75.2009 252.313L88.145 221.893C89.1945 219.446 90.244 217.348 91.2936 215.25L97.2408 201.264L105.637 182.033C105.987 181.334 106.337 180.634 106.337 179.935L113.928 162.102H159.512L166.859 179.236C169.308 184.83 170.357 189.026 170.357 191.474C170.357 193.571 169.657 194.97 167.908 196.369C166.159 197.767 163.01 198.467 158.463 198.816H111.234V201.614C116.132 201.963 119.98 203.362 122.779 205.46C125.578 207.558 128.376 213.152 131.875 220.845L173.506 320.146H176.654L218.635 221.893C219.684 219.446 220.734 217.348 221.783 215.25L229.13 198.117L236.127 182.382C236.477 181.683 236.826 180.984 236.826 180.285L244.558 162.102H290.702L298.048 179.236C300.497 184.83 301.547 189.026 301.547 191.474C301.547 193.571 300.847 194.97 299.098 196.369C297.349 197.767 294.2 198.467 289.302 198.816V198.467H242.074V201.614C246.972 201.963 250.82 203.362 253.619 205.46C256.417 207.907 259.216 213.152 262.715 220.845L304.345 320.146H307.494L336.531 252.313L349.475 221.893C350.524 219.446 351.574 217.348 352.623 215.25L358.57 201.264L366.967 182.033C367.316 181.334 367.666 180.634 367.666 179.935L375.258 162.102H421.541L428.888 179.236C431.337 184.83 432.386 189.026 432.386 191.474C432.386 193.571 431.687 194.97 429.938 196.369C428.188 197.767 425.04 198.467 420.492 198.816H373.264V201.614C378.161 201.963 382.01 203.362 384.808 205.46C387.607 207.558 390.406 213.152 393.904 220.845L435.535 320.146H438.684L480.664 221.893C481.714 219.446 482.763 217.348 483.813 215.25L491.159 198.117L498.156 182.382C498.506 181.683 498.856 180.984 498.856 180.285L506.587 162.102H552.871L560.078 178.886C562.526 184.48 563.576 188.676 563.576 191.124C563.576 193.222 562.876 194.62 561.127 196.019C559.378 197.418 556.229 198.117 551.332 198.467V201.614H598.21V198.467C593.312 198.117 589.464 196.718 586.665 194.271C583.867 191.823 581.068 186.578 577.57 178.886L570.573 161.753H570.433L536.289 79.9336H533.14L498.156 162.102H498.191L491.509 177.487C490.46 179.935 489.41 182.033 488.361 184.131L481.014 201.264L474.017 216.998C473.667 217.698 473.318 218.397 473.318 219.096L465.271 237.978H419.093L411.746 220.845C409.297 215.25 408.248 211.054 408.248 208.607C408.248 206.509 408.947 205.11 410.696 203.711C412.446 202.313 415.594 201.613 420.142 201.264H467.021V198.467C462.123 198.117 458.275 196.718 455.476 194.62C452.677 192.173 449.878 186.928 446.38 179.236L439.383 162.102L405.099 79.9336H401.95L367.421 161.054H367.316L360.32 177.138C359.27 179.585 358.221 181.683 357.171 183.781L351.224 197.767L342.828 216.998C342.478 217.698 342.128 218.397 342.128 219.096L336.181 232.733L333.732 237.978H287.553L280.207 220.845C277.758 215.25 276.708 211.054 276.708 208.607C277.058 207.208 277.758 205.46 279.507 204.061C281.256 202.662 284.405 201.963 289.302 201.614V201.963H336.181V198.467C331.283 198.117 327.435 196.718 324.636 194.62C321.837 192.173 319.039 186.928 315.54 179.236L308.543 162.102L274.259 79.9336H271.111L236.127 162.102H236.162L229.48 177.487C228.43 179.935 227.381 182.033 226.331 184.131L218.985 201.264L211.988 216.998C211.638 217.698 211.288 218.397 211.288 219.096L203.242 237.978H157.063L149.717 220.845C147.268 215.25 146.218 211.054 146.218 208.607C146.218 206.509 146.918 205.11 148.667 203.711C150.416 202.313 153.565 201.613 158.113 201.264H204.991V198.467C200.093 198.117 196.245 196.718 193.446 194.62C190.648 192.173 187.849 186.928 184.351 179.236L177.354 162.102H177.704L143.419 79.9336H140.271L105.287 162.102H105.532L98.99 177.138C97.9405 179.585 96.8909 181.683 95.8414 183.781L89.8942 197.767L81.498 216.998C81.1482 217.698 80.7984 218.397 80.7984 219.096L74.8511 232.733L72.4022 237.978H26.2235L18.8769 220.845C16.428 215.25 15.3785 211.054 15.3785 208.607C15.0286 207.208 16.0782 205.46 17.8274 204.061C19.5416 202.697 22.5852 201.998 27.273 201.648V201.963H74.1514V198.467H74.5013C69.6035 198.117 65.7553 196.718 62.9566 194.62C60.1579 192.173 57.3591 186.928 53.8607 179.236L46.864 162.102H46.5142L12.2299 79.9336H9.43121L-25.2378 161.403H-25.5527L-32.5494 177.487C-33.599 179.935 -34.6485 182.033 -35.698 184.131L-43.0446 201.264L-50.0414 216.998C-50.3912 217.698 -50.7411 218.397 -50.7411 219.096L-58.7874 237.978H-104.966L-112.313 220.845C-114.762 215.25 -115.811 211.054 -115.811 208.607C-115.811 206.509 -115.111 205.11 -113.362 203.711C-111.613 202.313 -108.464 201.613 -103.917 201.264H-57.0382V198.467C-61.9359 198.117 -65.7841 196.718 -68.5828 194.62C-71.3815 192.173 -74.1802 186.928 -77.6786 179.236L-84.6754 162.102H-84.3256L-118.61 79.9336H-121.758L-156.427 161.403H-156.742L-163.739 177.487C-164.789 179.935 -165.838 182.033 -166.888 184.131L-172.835 198.117L-181.231 217.348C-181.581 218.047 -181.931 218.747 -181.931 219.446L-187.878 233.082L-190.327 238.327H-236.156L-243.502 221.194C-245.951 215.6 -247.001 211.404 -247.001 208.956C-246.651 207.208 -245.951 205.46 -244.202 204.061C-242.453 202.662 -239.304 201.963 -234.406 201.614V201.963H-187.528V198.467C-192.426 198.117 -196.274 196.718 -199.073 194.62C-201.871 192.173 -204.67 186.928 -208.169 179.236L-215.165 162.102L-249.45 79.9336H-252.598L-287.582 162.102H-287.547L-294.229 177.487C-295.278 179.935 -296.328 182.033 -297.377 184.131L-304.724 201.264L-311.721 216.998C-312.071 217.698 -312.421 218.397 -312.421 219.096L-320.467 237.978H-366.995L-374.342 220.845C-376.791 215.25 -377.84 211.054 -377.84 208.607C-377.84 206.509 -377.141 205.11 -375.392 203.711C-373.642 202.662 -370.144 201.963 -365.596 201.614H-318.718V198.467C-323.615 198.117 -327.464 196.718 -330.262 194.62C-333.061 192.173 -335.86 186.928 -339.358 179.236L-346.355 162.102H-346.005L-380.639 79.9336H-383.438L-418.282 161.753H-418.772L-425.768 177.837C-426.468 180.285 -427.518 182.383 -428.567 184.48L-434.514 198.467L-442.91 217.698C-443.26 218.397 -443.61 219.096 -443.61 219.796L-449.557 233.432V253.013L-436.613 222.593C-435.564 219.796 -434.514 217.698 -433.465 215.6ZM529.642 107.207L549.932 155.459H509.001L529.642 107.207ZM462.123 244.621V244.971L441.482 292.873L421.192 244.621H462.123ZM398.802 107.207L419.093 155.459H378.161L398.802 107.207ZM331.283 244.971L310.643 293.223L290.352 244.971H331.283ZM267.962 107.207L288.253 155.459H247.322L267.962 107.207ZM200.443 244.971L179.803 293.223L159.512 244.971H200.443ZM136.773 107.207L157.063 155.459H116.132L136.773 107.207ZM69.2537 244.971L48.6132 293.223L28.3225 244.971H69.2537ZM5.93283 107.207L26.2235 155.459H-14.7076L5.93283 107.207ZM-61.5861 244.971L-82.2266 293.223L-102.517 244.971H-61.5861ZM-124.907 107.207L-104.616 155.459H-145.547L-124.907 107.207ZM-192.426 244.971L-213.066 293.223L-233.707 244.971H-192.426ZM-256.096 107.207L-235.806 155.459H-276.737L-256.096 107.207ZM-323.615 244.971L-344.256 293.223L-364.547 244.971H-323.615ZM-386.936 107.207L-366.646 155.459H-407.577L-386.936 107.207Z" fill="#E5E7EB"/>
<path d="M9.43115 714.208L-25.5527 796.377H46.5141L12.2299 714.208H9.43115ZM-14.7077 789.733L5.93276 741.481L26.2234 789.733H-14.7077Z" fill="#E5E7EB"/>
<path d="M140.271 714.208L105.287 796.377H177.704L143.42 714.208H140.271ZM116.132 789.733L136.773 741.481L157.063 789.733H116.132Z" fill="#E5E7EB"/>
<path d="M271.111 714.208L236.127 796.377H308.544L274.259 714.208H271.111ZM247.322 789.733L267.962 741.481L288.253 789.733H247.322Z" fill="#E5E7EB"/>
<path d="M584.217 343.224L576.87 360.357L569.873 376.092C569.523 376.791 569.173 377.49 569.173 378.19L561.127 397.071H514.948L507.602 379.938C505.153 374.343 504.103 370.147 504.103 367.7C504.103 365.602 504.803 364.203 506.552 362.805C508.301 361.406 511.45 360.707 515.998 360.357H562.876V357.21C557.979 356.861 554.13 355.462 551.332 353.364C548.533 351.266 545.734 345.672 542.236 337.979L500.605 238.677H497.456L455.476 336.93C454.426 339.378 453.377 341.476 452.327 343.574L446.38 357.56L437.984 376.791C437.634 377.49 437.284 378.19 437.284 378.889L429.238 397.77H383.059L375.713 380.637C373.264 375.043 372.214 370.847 372.214 368.399C372.214 366.301 372.914 364.903 374.663 363.504C376.412 362.105 379.561 361.406 384.109 361.056H430.987V357.91C426.089 357.56 422.241 356.161 419.442 354.063C416.644 351.616 413.845 346.371 410.347 338.679L368.716 239.377H365.567L334.432 312.105L323.587 337.63C322.537 340.077 321.488 342.175 320.438 344.273L313.091 361.406L306.095 377.141C305.745 377.84 305.395 378.539 305.395 379.239L297.349 398.12H251.17L243.823 380.987C241.374 375.392 240.325 371.196 240.325 368.749C240.325 366.651 241.025 365.252 242.774 363.854C244.523 362.455 247.672 361.756 252.219 361.406H301.547V358.259C296.649 357.91 292.801 356.511 290.002 354.413C287.203 351.965 284.405 346.721 280.906 339.028L239.275 239.726H236.127L194.146 337.979C193.097 340.427 192.047 342.525 190.998 344.623L185.05 358.609L176.654 377.84C176.304 378.539 175.955 379.238 175.955 379.938L167.908 398.819H121.73L114.383 381.686C111.934 376.092 110.885 371.896 110.885 369.448C110.885 367.35 111.584 365.952 113.333 364.553C115.083 363.154 118.231 362.455 122.779 362.105H169.657V358.959C164.76 358.609 160.911 357.21 158.113 355.112C155.314 352.665 152.515 347.42 149.017 339.727L107.386 240.426H104.238L73.1019 313.154L62.2569 338.679C61.2074 341.126 60.1578 343.224 59.1083 345.322L51.7617 362.455L44.765 378.19C44.4151 378.889 44.0653 379.588 44.0653 380.287L36.019 399.169H-10.1598L-17.5063 382.036C-19.9552 376.441 -21.0048 372.245 -21.0048 369.798C-21.0048 367.7 -20.3051 366.301 -18.5559 364.903C-16.8067 363.504 -13.6581 362.805 -9.11023 362.455H37.7682V359.308C32.8705 358.959 29.0222 357.56 26.2235 355.462C23.4248 353.014 20.6261 347.77 17.1277 340.077L-24.5031 240.775H-27.6517L-69.6324 339.028C-70.6819 341.476 -71.7314 343.574 -72.7809 345.672L-78.7281 359.658L-87.1243 378.889C-87.4742 379.588 -87.824 380.287 -87.824 380.987L-93.7712 397.071H-139.95L-147.297 379.938C-149.745 374.343 -150.795 370.147 -150.795 367.7C-150.795 365.602 -150.095 364.203 -148.346 362.805C-146.597 361.406 -143.448 360.707 -138.9 360.357H-92.0221V357.21C-96.9198 356.861 -100.768 355.462 -103.567 353.364C-106.365 350.916 -109.164 345.672 -112.663 337.979L-153.594 238.677H-156.742L-187.878 311.405L-198.723 336.93C-199.772 339.378 -200.822 341.476 -201.871 343.574L-209.218 360.707L-216.215 376.441C-216.565 377.141 -216.915 377.84 -216.915 378.539L-224.961 397.421H-270.79L-278.136 380.287C-280.585 374.693 -281.635 370.497 -281.635 368.05C-281.635 365.952 -280.935 364.553 -279.186 363.154C-277.437 361.756 -274.288 361.056 -269.74 360.707H-222.862V357.56C-227.76 357.21 -231.608 355.812 -234.406 353.714C-237.205 351.616 -240.004 346.021 -243.502 338.329L-284.433 238.677H-287.582L-329.563 336.93C-330.612 339.378 -331.662 341.476 -332.711 343.574L-338.658 357.56L-347.055 376.791C-347.404 377.49 -347.754 378.19 -347.754 378.889L-355.801 397.77H-401.629L-408.976 380.637C-411.425 375.043 -412.474 370.847 -412.474 368.399C-412.474 366.301 -411.775 364.903 -410.026 363.504C-408.276 362.105 -405.128 361.406 -400.58 361.056H-353.702V357.91C-358.599 357.56 -362.447 356.161 -365.246 354.063C-368.045 351.616 -370.844 346.371 -374.342 338.679L-415.273 238.677H-418.422L-449.557 311.405V330.986L-445.359 320.846H-398.831L-391.484 337.979C-389.035 343.574 -387.986 347.77 -387.986 350.217C-387.986 352.315 -388.685 353.714 -390.435 355.112C-392.184 356.511 -395.332 357.21 -399.88 357.56H-447.458V360.707C-442.561 361.056 -438.712 362.455 -435.914 364.553C-433.115 367.001 -430.316 372.245 -426.818 379.938L-385.187 479.24H-382.038L-340.058 380.987C-339.008 378.539 -337.959 376.441 -336.909 374.343L-330.962 360.357L-322.566 341.126C-322.216 340.427 -321.866 339.728 -321.866 339.028L-313.82 320.147H-267.641L-260.295 337.28C-257.846 342.874 -256.796 347.07 -256.796 349.518C-256.796 351.616 -257.496 353.014 -259.245 354.413C-260.994 355.812 -264.143 356.511 -268.691 356.861H-316.269V360.007C-311.371 360.357 -307.523 361.756 -304.724 363.854C-301.925 366.301 -299.127 371.546 -295.628 379.239L-253.997 478.541H-251.199L-209.218 380.287C-208.169 377.84 -207.119 375.742 -206.07 373.644L-198.723 356.511L-191.726 340.776C-191.376 340.077 -191.026 339.378 -191.026 338.679L-187.178 329.937L-182.98 319.797H-136.801L-129.455 336.93C-127.006 342.525 -125.956 346.721 -125.956 349.168C-125.956 351.266 -126.656 352.665 -128.405 354.063C-130.154 355.462 -133.303 356.161 -137.851 356.511H-185.429V359.658C-180.531 360.007 -176.683 361.406 -173.884 363.504C-171.086 365.952 -168.287 371.196 -164.789 378.889L-123.158 478.191H-120.009L-78.0285 379.938C-76.979 377.49 -75.9294 375.392 -74.8799 373.294L-68.9327 359.308L-60.5366 340.077C-60.1867 339.378 -59.8369 338.679 -59.8369 337.979L-51.7906 319.098H-5.61185L1.73477 336.231C4.18365 341.825 5.23315 346.021 5.23315 348.469C5.23315 350.567 4.53351 351.965 2.7843 353.364C1.03513 354.763 -2.11346 355.462 -6.66135 355.812H-53.5398V358.959C-48.642 359.308 -44.7938 360.707 -41.9951 362.805C-39.1964 365.252 -36.3977 370.497 -32.8993 378.19L8.73157 477.492H11.8801L53.8607 379.239C54.9103 376.791 55.9598 374.693 57.0093 372.595L64.3559 355.462L71.3527 339.727C71.7025 339.028 72.0524 338.329 72.0524 337.63L75.9006 328.888L80.0987 318.748H126.277L133.624 335.881C136.073 341.476 137.122 345.672 137.122 348.119C137.122 350.217 136.423 351.616 134.674 353.014C132.924 354.413 129.776 355.112 125.228 355.462H78.3495V358.609C83.2472 358.958 87.0955 360.357 89.8942 362.455C92.6929 364.903 95.4916 370.147 98.99 377.84L140.621 477.142H143.769L185.75 378.889C186.8 376.441 187.849 374.343 188.899 372.245L194.846 358.259L203.242 339.028C203.592 338.329 203.942 337.63 203.942 336.93L211.988 318.049H258.167L265.513 335.182C267.962 340.776 269.012 344.972 269.012 347.42C269.012 349.518 268.312 350.916 266.563 352.315C264.814 353.714 261.665 354.413 257.117 354.763H210.239V357.91C215.137 358.259 218.985 359.658 221.783 361.756C224.582 364.203 227.381 369.448 230.879 377.141L272.51 476.443H275.659L317.639 378.19C318.689 375.742 319.738 373.644 320.788 371.546L328.134 354.413L335.131 338.679C335.481 337.979 335.831 337.28 335.831 336.581L339.679 327.839L343.877 317.699H390.056L397.403 334.832C399.851 340.427 400.901 344.623 400.901 347.07C400.901 349.168 400.201 350.567 398.452 351.965C396.703 353.364 393.554 354.063 389.006 354.413H342.128V357.56C347.026 357.91 350.874 359.308 353.673 361.406C356.471 363.854 359.27 369.099 362.768 376.791L404.399 476.093H407.548L449.529 377.84C450.578 375.392 451.628 373.294 452.677 371.196L458.624 357.21L467.021 337.979C467.37 337.28 467.72 336.581 467.72 335.881L475.766 317H521.945L529.292 334.133C531.741 339.727 532.79 343.923 532.79 346.371C532.79 348.469 532.091 349.868 530.341 351.266C528.592 352.665 525.444 353.364 520.896 353.714H474.017V356.861C478.915 357.21 482.763 358.609 485.562 360.707C488.361 363.154 491.159 368.399 494.658 376.092L536.289 475.394H539.437L581.418 377.141C582.467 374.693 583.517 372.595 584.566 370.497L591.913 353.364L598.91 337.63C599.26 336.93 599.609 336.231 599.609 335.532L603.458 326.79V307.21L592.613 332.734C586.316 339.378 585.266 341.476 584.217 343.224ZM-442.561 314.203L-421.92 265.95L-401.629 314.203H-442.561ZM-379.24 451.967L-399.181 403.714H-358.249L-379.24 451.967ZM-311.371 314.203L-290.731 265.95L-270.44 314.203H-311.371ZM-248.05 451.967L-268.341 403.714H-227.41L-248.05 451.967ZM-180.531 314.203L-159.891 265.95L-139.6 314.203H-180.531ZM-117.21 451.967L-137.501 403.714H-96.5699L-117.21 451.967ZM-49.6915 314.203L-29.0511 265.95L-8.76038 314.203H-49.6915ZM13.6293 451.967L-6.31152 403.714H34.6196L13.6293 451.967ZM81.498 314.203L102.139 265.95L122.429 314.203H81.498ZM144.819 451.967L124.528 403.714H165.459L144.819 451.967ZM212.338 314.203L232.978 265.95L253.269 314.203H212.338ZM275.659 451.967L255.368 403.714H296.299L275.659 451.967ZM343.178 314.203L363.818 265.95L384.109 314.203H343.178ZM406.498 451.967L386.208 403.714H427.489L406.498 451.967ZM474.367 314.203L495.008 265.95L515.298 314.203H474.367ZM537.688 451.967L517.397 403.714H558.328L537.688 451.967Z" fill="#E5E7EB"/>
<path d="M596.811 419.449L601.009 429.589V397.071H599.959L555.18 495.324C554.13 497.771 553.081 499.869 552.031 501.967L544.685 519.1L537.688 534.835C537.338 535.534 536.988 536.233 536.988 536.933L528.942 555.814H482.763L475.417 538.681C472.968 533.087 471.918 528.891 471.918 526.443C471.918 524.345 472.618 522.947 474.367 521.548C476.116 520.149 479.265 519.45 483.813 519.1H530.691V515.953C525.793 515.604 521.945 514.205 519.146 512.107C516.348 509.66 513.549 504.415 510.051 496.722L468.42 397.42H465.971L423.99 495.674C422.941 498.121 421.891 500.219 420.842 502.317L414.894 516.303L406.498 535.534C406.148 536.233 405.799 536.933 405.799 537.632L397.752 556.513H351.574L344.227 539.38C341.778 533.786 340.729 529.59 340.729 527.142C340.729 525.045 341.428 523.646 343.177 522.247C344.927 520.849 348.075 520.149 352.623 519.8H399.502V516.653C394.604 516.303 390.756 514.905 387.957 512.807C385.158 510.359 382.359 505.114 378.861 497.422L337.23 398.12H334.082L292.101 496.373C291.051 498.82 290.002 500.918 288.952 503.016L281.606 520.149L274.609 535.884C274.259 536.583 273.909 537.282 273.909 537.982L265.863 556.863H219.684L212.338 539.73C209.889 534.136 208.839 529.94 208.839 527.492C208.839 525.394 209.539 523.996 211.288 522.597C213.037 521.198 216.186 520.499 220.734 520.149H267.612V517.002C262.715 516.653 258.866 515.254 256.068 513.156C253.269 510.709 250.47 505.464 246.972 497.771L205.341 398.469H202.192L160.212 496.722C159.162 499.17 158.113 501.268 157.063 503.366L151.116 517.352L142.72 536.583C142.37 537.282 142.02 537.982 142.02 538.681L133.974 557.562H87.7951L80.4485 540.429C77.9996 534.835 76.9501 530.639 76.9501 528.191C76.9501 526.093 77.6498 524.695 79.399 523.296C81.1481 521.898 84.2967 521.198 88.8446 520.849H135.723V517.702C130.825 517.352 126.977 515.953 124.178 513.856C121.38 511.408 118.581 506.163 115.083 498.471L73.4517 399.169H70.3032L28.3225 497.422C27.273 499.869 26.2234 501.967 25.174 504.065L17.8274 521.198L10.8306 536.933C10.4807 537.632 10.1309 538.331 10.1309 539.031L2.08459 557.912H-44.0941L-51.4407 540.779C-53.8896 535.185 -54.9391 530.989 -54.9391 528.541C-54.9391 526.443 -54.2395 525.045 -52.4903 523.646C-50.7411 522.247 -47.5925 521.548 -43.0446 521.198H3.8338V518.051C-1.06393 517.702 -4.91217 516.303 -7.71088 514.205C-10.5096 511.758 -13.3083 506.513 -16.8067 498.82L-58.4375 399.518H-61.5861L-103.567 497.771C-104.616 500.219 -105.666 502.317 -106.715 504.415L-112.663 518.401L-121.059 537.632C-121.409 538.331 -121.758 539.031 -121.758 539.73L-129.805 558.611H-172.135L-179.482 541.478C-181.931 535.884 -182.98 531.688 -182.98 529.24C-182.98 527.142 -182.28 525.744 -180.531 524.345C-178.782 522.947 -175.634 522.247 -171.086 521.898H-124.207V518.751C-129.105 518.401 -132.953 517.002 -135.752 514.905C-138.551 512.457 -141.349 507.212 -144.848 499.52L-185.429 397.071H-188.578L-230.558 495.324C-231.608 497.771 -232.657 499.869 -233.707 501.967L-241.053 519.1L-248.05 534.835C-248.4 535.534 -248.75 536.233 -248.75 536.933L-256.796 555.814H-302.975L-310.322 538.681C-312.77 533.087 -313.82 528.891 -313.82 526.443C-313.82 524.345 -313.12 522.947 -311.371 521.548C-309.622 520.149 -306.473 519.45 -301.925 519.1H-255.047V515.953C-259.945 515.604 -263.793 514.205 -266.592 512.107C-269.39 509.66 -272.189 504.415 -275.687 496.722L-316.619 397.071H-319.767L-361.748 495.324C-362.797 497.771 -363.847 499.869 -364.896 501.967L-370.844 515.953L-379.24 535.184C-379.59 535.884 -379.939 536.583 -379.939 537.282L-387.636 555.814H-433.815L-441.161 538.681C-443.61 533.087 -444.66 528.891 -444.66 526.443C-444.66 524.345 -443.96 522.947 -442.211 521.548C-440.462 520.149 -437.313 519.45 -432.765 519.1H-385.887V515.953C-390.784 515.604 -394.633 514.205 -397.431 512.107C-400.23 509.66 -403.029 504.415 -406.527 496.722L-447.458 397.071H-449.557V434.834L-433.815 472.596H-449.557V479.24H-431.366L-424.019 496.373C-421.57 501.967 -420.521 506.163 -420.521 508.611C-420.521 510.709 -421.22 512.107 -422.97 513.506C-424.719 514.905 -427.867 515.604 -432.415 515.953H-449.557V561.758L-417.722 637.983H-414.573L-372.593 539.73C-371.543 537.282 -370.494 535.184 -369.444 533.087L-363.497 519.1L-355.101 499.869C-354.751 499.17 -354.401 498.471 -354.401 497.771L-346.355 478.89H-300.176L-292.83 496.023C-290.381 501.618 -289.331 505.814 -289.331 508.261C-289.331 510.359 -290.031 511.758 -291.78 513.156C-293.529 514.555 -296.678 515.254 -301.226 515.604H-348.104V518.751C-343.206 519.1 -339.358 520.499 -336.559 522.597C-333.761 525.044 -330.962 530.289 -327.464 537.982L-285.833 637.284H-282.684L-240.704 539.031C-239.654 536.583 -238.605 534.485 -237.555 532.387L-230.208 515.254L-223.212 499.52C-222.862 498.82 -222.512 498.121 -222.512 497.422L-214.466 478.54H-168.637L-161.29 495.674C-158.841 501.268 -157.792 505.464 -157.792 507.911C-157.792 510.009 -158.491 511.408 -160.241 512.807C-161.99 514.205 -165.138 514.905 -169.686 515.254H-216.915V518.401C-212.017 518.751 -208.169 520.149 -205.37 522.247C-202.571 524.345 -199.772 529.94 -196.274 537.632L-186.828 560.36L-154.993 636.584H-151.845L-109.864 538.331C-108.814 535.884 -107.765 533.786 -106.715 531.688L-100.768 517.702L-92.3719 498.471C-92.0221 497.771 -91.6722 497.072 -91.6722 496.373L-83.6259 477.491H-37.4472L-30.1006 494.624C-27.6517 500.219 -26.6022 504.415 -26.6022 506.862C-26.6022 508.96 -27.3019 510.359 -29.0511 511.758C-30.8003 513.156 -33.9488 513.856 -38.4967 514.205H-85.3751V517.352C-80.4774 517.702 -76.6292 519.1 -73.8304 521.198C-71.0317 523.296 -68.233 528.891 -64.7346 536.583L-23.1038 635.885H-19.9553L22.0254 537.632C23.0749 535.185 24.1244 533.087 25.174 530.989L32.5206 513.856L39.5174 498.121C39.8672 497.422 40.217 496.723 40.217 496.023L48.2633 477.142H94.0922L101.439 494.275C103.888 499.869 104.937 504.065 104.937 506.513C104.937 508.611 104.238 510.009 102.488 511.408C100.739 512.807 97.5906 513.506 93.0427 513.856H45.8145V517.002C50.7122 517.352 54.5604 518.751 57.3591 520.849C60.1578 522.947 62.9565 528.541 66.455 536.234L75.9006 558.961L107.736 635.186H110.884L152.865 536.933C153.915 534.485 154.964 532.387 156.014 530.289L161.961 516.303L170.357 497.072C170.707 496.373 171.057 495.673 171.057 494.974L179.103 476.093H225.282L232.628 493.226C235.077 498.82 236.127 503.016 236.127 505.464C236.127 507.562 235.427 508.96 233.678 510.359C231.929 511.758 228.78 512.457 224.232 512.807H177.354V515.953C182.252 516.303 186.1 517.702 188.899 519.8C191.697 521.898 194.496 527.492 197.994 535.184L239.625 634.486H242.774L284.754 536.234C285.804 533.786 286.853 531.688 287.903 529.59L295.25 512.457L302.246 496.722C302.596 496.023 302.946 495.324 302.946 494.624L310.992 475.743H356.821L364.168 492.876C366.617 498.471 367.666 502.667 367.666 505.114C367.666 507.212 366.966 508.611 365.217 510.009C363.468 511.408 360.32 512.107 355.772 512.457H308.543V515.604C313.441 515.953 317.289 517.352 320.088 519.45C322.887 521.548 325.686 527.142 329.184 534.835L338.63 557.562L370.465 633.787H373.613L415.594 535.534C416.644 533.087 417.693 530.989 418.743 528.891L424.69 514.905L433.086 495.674C433.436 494.974 433.786 494.275 433.786 493.576L441.832 474.694H488.011L495.357 491.827C497.806 497.422 498.856 501.618 498.856 504.065C498.856 506.163 498.156 507.562 496.407 508.96C494.658 510.359 491.509 511.058 486.961 511.408H440.083V514.555C444.981 514.905 448.829 516.303 451.628 518.401C454.426 520.499 457.225 526.093 460.723 533.786L502.354 633.088H505.503L547.483 534.835C548.533 532.387 549.582 530.289 550.632 528.191L557.979 511.058L564.975 495.324C565.325 494.625 565.675 493.925 565.675 493.226L573.721 474.345H601.359V467.701H576.17L596.811 419.449ZM-411.075 610.36L-431.366 562.108H-390.435L-411.075 610.36ZM-343.556 472.596L-322.916 424.344L-302.625 472.596H-343.556ZM-280.235 610.36L-300.526 562.108H-259.595L-280.235 610.36ZM-187.528 472.596H-212.716L-191.726 424.694L-187.528 434.834L-171.785 472.596H-187.528ZM-149.396 610.36L-169.686 562.108H-128.755L-149.396 610.36ZM-81.5269 472.596L-60.8864 424.344L-40.5957 472.596H-81.5269ZM-18.2061 610.36L-38.4967 562.108H2.43442L-18.2061 610.36ZM74.5012 472.247V472.596H49.3129L69.9533 424.344L74.1514 434.484L89.8941 472.247H74.5012ZM112.634 610.36L92.343 562.108H133.274L112.634 610.36ZM180.153 472.596L200.793 424.344L221.084 472.596H180.153ZM243.473 610.36L223.183 562.108H264.114L243.473 610.36ZM336.181 472.247V472.596H310.992L331.633 424.344L335.831 434.484L351.574 472.247H336.181ZM374.313 610.36L354.022 562.108H394.954L374.313 610.36ZM442.182 472.596L462.822 424.344L483.113 472.596H442.182ZM505.503 610.36L485.212 562.108H526.143L505.503 610.36Z" fill="#E5E7EB"/>
<path d="M574.421 694.627C571.972 689.032 570.923 684.837 570.923 682.389C570.923 680.291 571.622 678.892 573.371 677.494C575.121 676.095 578.269 675.396 583.167 675.046H598.21V624.696L568.124 553.017H564.975V555.814L522.995 654.067C521.945 656.514 520.896 658.612 519.846 660.71L512.5 677.843L505.503 693.578C505.153 694.277 504.803 694.976 504.803 695.676L496.757 714.557H450.578L443.231 697.424C440.783 691.83 439.733 687.634 439.733 685.186C439.733 683.088 440.433 681.69 442.182 680.291C443.931 678.892 447.08 678.193 451.977 677.843H498.856V674.696C493.958 674.347 490.11 672.948 487.311 670.85C484.512 668.403 481.714 663.158 478.215 655.465L437.284 555.814H434.136L392.155 654.067C391.105 656.514 390.056 658.612 389.006 660.71L381.66 677.843L374.663 693.578C374.313 694.277 373.963 694.976 373.963 695.676L365.917 714.557H319.738L312.392 697.424C309.943 691.83 308.893 687.634 308.893 685.186C308.893 683.088 309.593 681.69 311.342 680.291C313.091 678.892 316.24 678.193 321.138 677.843H368.016V674.696C363.118 674.347 359.27 672.948 356.471 670.85C353.673 668.403 350.874 663.158 347.376 655.465L335.831 627.843L305.745 556.163H302.596L260.616 654.417C259.566 656.864 258.517 658.962 257.467 661.06L250.12 678.193L243.124 693.927C242.774 694.627 242.424 695.326 242.424 696.025L234.378 714.907H188.199L180.852 697.774C178.403 692.179 177.354 687.983 177.354 685.536C177.354 683.438 178.054 682.039 179.803 680.641C181.552 679.242 184.701 678.543 189.598 678.193H236.477V675.046C231.579 674.696 227.731 673.298 224.932 671.2C222.133 668.752 219.335 663.508 215.836 655.815L175.255 555.814H172.106L130.126 653.717C129.076 656.165 128.027 658.263 126.977 660.361L119.63 677.494L112.634 693.228C112.284 693.928 111.934 694.627 111.934 695.326L103.888 714.208H57.709L50.3624 697.074C47.9135 691.48 46.864 687.284 46.864 684.837C46.864 682.739 47.5637 681.34 49.3129 679.941C51.0621 678.543 54.2106 677.843 59.1083 677.494H105.987V674.347C101.089 673.997 97.2408 672.599 94.4421 670.501C91.6434 668.053 88.8447 662.808 85.3463 655.116L73.8016 627.493L43.7155 555.814H40.5669L-1.41376 654.067C-2.46326 656.514 -3.51282 658.612 -4.56235 660.71L-11.9089 677.843L-18.9057 693.578C-19.2556 694.277 -19.6054 694.976 -19.6054 695.676L-27.6517 714.557H-73.8304L-81.177 697.424C-83.6259 691.83 -84.6754 687.634 -84.6754 685.186C-84.6754 683.088 -83.9757 681.69 -82.2266 680.291C-80.4774 678.892 -77.3288 678.193 -72.4311 677.843H-25.5527V674.696C-30.4504 674.347 -34.2986 672.948 -37.0973 670.85C-39.8961 668.403 -42.6948 663.158 -46.1931 655.465L-86.7745 555.814H-89.923L-131.904 654.067C-132.953 656.514 -134.003 658.612 -135.052 660.71L-142.399 677.843L-149.396 693.578C-149.745 694.277 -150.095 694.976 -150.095 695.676L-158.142 714.557H-204.32L-211.667 697.424C-214.116 691.83 -215.165 687.634 -215.165 685.186C-215.165 683.088 -214.466 681.69 -212.716 680.291C-210.967 678.892 -207.819 678.193 -202.921 677.843H-156.043V674.696C-160.94 674.347 -164.789 672.948 -167.587 670.85C-170.386 668.403 -173.185 663.158 -176.683 655.465L-188.228 627.843L-217.614 555.814H-220.763L-262.743 654.067C-263.793 656.514 -264.842 658.612 -265.892 660.71L-273.239 677.843L-280.235 693.578C-280.585 694.277 -280.935 694.976 -280.935 695.676L-288.981 714.557H-334.81L-342.157 697.424C-344.606 691.83 -345.655 687.634 -345.655 685.186C-345.655 683.088 -344.956 681.69 -343.206 680.291C-341.457 678.892 -338.309 678.193 -333.411 677.843H-286.532V674.696C-291.43 674.347 -295.278 672.948 -298.077 670.85C-300.876 668.403 -303.675 663.158 -307.173 655.465L-348.454 555.814H-351.602L-393.583 654.067C-394.633 656.514 -395.682 658.612 -396.732 660.71L-404.078 677.843L-411.075 693.578C-411.425 694.277 -411.775 694.976 -411.775 695.676L-419.821 714.557H-449.557V721.201H-422.62L-443.26 769.103L-449.557 754.068V796.376H-446.409L-404.428 698.473C-403.379 696.025 -402.329 693.928 -401.28 691.83L-393.933 674.696L-386.936 658.962C-386.586 658.263 -386.237 657.563 -386.237 656.864L-378.19 637.983H-332.012L-324.665 655.116C-322.216 660.71 -321.167 664.906 -321.167 667.354C-321.167 669.452 -321.866 670.85 -323.615 672.249C-325.365 673.648 -328.513 674.347 -333.411 674.696H-380.639V677.843C-375.741 678.193 -371.893 679.592 -369.094 681.69C-366.296 683.787 -363.497 689.382 -359.999 697.074L-318.368 796.027H-315.219L-273.239 698.123C-272.189 695.676 -271.14 693.578 -270.09 691.48L-262.743 674.347L-255.747 658.612C-255.397 657.913 -255.047 657.214 -255.047 656.514L-247.001 637.633H-200.822L-193.475 654.766C-191.026 660.361 -189.977 664.557 -189.977 667.004C-189.977 669.102 -190.677 670.501 -192.426 671.899C-194.175 673.298 -197.324 673.997 -202.221 674.347H-249.799V677.494C-244.902 677.843 -241.053 679.242 -238.255 681.34C-235.456 683.788 -232.657 689.032 -229.159 696.725L-187.528 795.677H-184.379L-142.399 697.774C-141.349 695.326 -140.3 693.228 -139.25 691.13L-131.904 673.997L-124.907 658.263C-124.557 657.563 -124.207 656.864 -124.207 656.165L-116.161 637.283H-69.9822L-62.6356 654.417C-60.1867 660.011 -59.1372 664.207 -59.1372 666.654C-59.1372 668.752 -59.8369 670.151 -61.5861 671.55C-63.3352 672.948 -66.4838 673.648 -71.3816 673.997H-118.61V677.144C-113.712 677.494 -109.864 678.892 -107.065 680.99C-104.266 683.088 -101.468 688.683 -97.9693 696.375L-56.3385 795.327H-53.1899L-11.2093 697.424C-10.1597 694.976 -9.11023 692.879 -8.06073 690.781L-0.714081 673.648L6.28268 657.913C6.63254 657.214 6.98236 656.514 6.98236 655.815L15.0287 636.934H61.2074L68.554 654.067C71.0029 659.661 72.0524 663.857 72.0524 666.305C72.0524 668.403 71.3527 669.801 69.6035 671.2C67.8543 672.599 64.7058 673.298 59.808 673.648H12.9296V676.794C17.8274 677.144 21.6756 678.543 24.4743 680.641C27.273 683.088 30.0717 688.333 33.5701 696.025L75.2009 794.978H78.3495L120.33 697.074C121.38 694.627 122.429 692.529 123.479 690.431L130.825 673.298L137.822 657.563C138.172 656.864 138.522 656.165 138.522 655.465L146.568 636.584H192.747L200.093 653.717C202.542 659.312 203.592 663.508 203.592 665.955C203.592 668.053 202.892 669.452 201.143 670.85C199.394 672.249 196.245 672.948 191.347 673.298H144.469V676.445C149.367 676.794 153.215 678.193 156.014 680.291C158.812 682.389 161.611 687.983 165.109 695.676L206.74 794.628H209.889L251.87 696.725C252.919 694.277 253.969 692.179 255.018 690.081L262.365 672.948L269.362 657.214C269.711 656.514 270.061 655.815 270.061 655.116L278.107 636.234H322.537L329.884 653.368C332.333 658.962 333.382 663.158 333.382 665.606C333.382 667.703 332.682 669.102 330.933 670.501C329.184 671.899 326.035 672.599 321.138 672.948H274.259V676.095C279.157 676.445 283.005 677.843 285.804 679.941C288.603 682.389 291.401 687.634 294.9 695.326L336.531 794.278H339.679L381.66 696.375C382.709 693.928 383.759 691.83 384.808 689.732L392.155 672.599L399.152 656.864C399.502 656.165 399.851 655.466 399.851 654.766L407.898 635.885H454.076L461.423 653.018C463.872 658.612 464.921 662.808 464.921 665.256C464.921 667.354 464.222 668.752 462.473 670.151C460.723 671.55 457.575 672.249 452.677 672.599H405.799V675.745C410.696 676.095 414.545 677.494 417.343 679.592C420.142 682.039 422.941 687.284 426.439 694.977L468.07 793.929H471.219L513.199 696.025C514.249 693.578 515.298 691.48 516.348 689.382L523.694 672.249L530.691 656.514C531.041 655.815 531.391 655.116 531.391 654.417L539.437 635.535H585.616L592.963 652.668C595.411 658.263 596.461 662.459 596.461 664.906C596.461 667.004 595.761 668.403 594.012 669.801C592.263 671.2 589.114 671.899 584.217 672.249H535.939V675.396C540.837 675.745 544.685 677.144 547.483 679.242C550.282 681.69 553.081 686.934 556.579 694.627L598.21 793.579V751.621L584.217 718.403H598.21V711.76H581.768L574.421 694.627ZM-375.741 631.339L-355.101 583.087L-334.81 631.339H-375.741ZM-312.071 769.103L-332.361 720.851H-291.43L-312.071 769.103ZM-244.552 631.339L-223.911 583.087L-203.621 631.339H-244.552ZM-181.231 769.103L-187.528 754.068L-201.522 720.851H-160.59L-181.231 769.103ZM-113.712 631.339L-93.0716 583.087L-72.7809 631.339H-113.712ZM-50.3912 769.103L-70.6819 720.851H-29.7507L-50.3912 769.103ZM17.1277 631.339L37.7682 583.087L58.0589 631.339H17.1277ZM80.4485 769.103L74.1514 754.068L60.1579 720.851H101.089L80.4485 769.103ZM148.317 631.339L168.958 583.087L189.248 631.339H148.317ZM211.638 769.103L191.347 720.851H232.279L211.638 769.103ZM279.157 631.339L299.797 583.087L320.088 631.339H279.157ZM342.478 769.103L336.181 754.068L322.187 720.851H363.118L342.478 769.103ZM409.997 631.339L430.637 583.087L450.928 631.339H409.997ZM473.318 769.103L453.027 720.851H493.958L473.318 769.103ZM541.186 631.339L561.827 583.087L582.117 631.339H541.186Z" fill="#E5E7EB"/>
<path d="M401.95 714.208L366.967 796.377H439.383L405.099 714.208H401.95ZM378.161 789.733L398.802 741.481L419.093 789.733H378.161Z" fill="#E5E7EB"/>
<path d="M-414.573 3.70908L-372.593 -94.5439C-371.543 -96.9915 -370.494 -99.0894 -369.444 -101.187L-363.497 -115.174L-355.101 -134.405C-354.751 -135.104 -354.401 -135.803 -354.401 -136.503L-346.355 -155.384H-300.176L-292.83 -138.251C-290.381 -132.656 -289.331 -128.46 -289.331 -126.013C-289.331 -123.915 -290.031 -122.516 -291.78 -121.118C-293.529 -119.719 -296.678 -119.02 -301.226 -118.67H-348.104V-115.523C-343.206 -115.174 -339.358 -113.775 -336.559 -111.677C-333.761 -109.229 -330.962 -103.985 -327.464 -96.2922L-285.833 3.00977H-282.684L-240.704 -95.2432C-239.654 -97.6908 -238.605 -99.7888 -237.555 -101.887L-230.208 -119.02L-223.212 -134.754C-222.862 -135.454 -222.512 -136.153 -222.512 -136.852L-214.466 -155.734H-168.637L-161.29 -138.6C-158.841 -133.006 -157.792 -128.81 -157.792 -126.363C-157.792 -124.265 -158.491 -122.866 -160.241 -121.467C-161.99 -120.069 -165.138 -119.369 -169.686 -119.02H-216.915V-115.873C-212.017 -115.523 -208.169 -114.125 -205.37 -112.027C-202.571 -109.929 -199.772 -104.334 -196.274 -96.6419L-186.828 -73.9143L-154.993 2.31047H-151.845L-109.864 -95.9426C-108.814 -98.3901 -107.765 -100.488 -106.715 -102.586L-100.768 -116.572L-92.3719 -135.803C-92.0221 -136.503 -91.6722 -137.202 -91.6722 -137.901L-83.6259 -156.783H-37.4472L-30.1006 -139.649C-27.6517 -134.055 -26.6022 -129.859 -26.6022 -127.411C-26.6022 -125.314 -27.3019 -123.915 -29.0511 -122.516C-30.8003 -121.118 -33.9488 -120.418 -38.4967 -120.069H-85.3751V-116.922C-80.4774 -116.572 -76.6292 -115.174 -73.8304 -113.076C-71.0317 -110.978 -68.233 -105.383 -64.7346 -97.6908L-23.1038 1.61118H-19.9553L22.0254 -96.6419C23.0749 -99.0894 24.1244 -101.187 25.174 -103.285L32.5206 -120.418L39.5174 -136.153C39.8672 -136.852 40.217 -137.551 40.217 -138.251L48.2633 -157.132H94.0922L101.439 -139.999C103.888 -134.405 104.937 -130.209 104.937 -127.761C104.937 -125.663 104.238 -124.265 102.488 -122.866C100.739 -121.467 97.5906 -120.768 93.0427 -120.418H45.8145V-117.271C50.7122 -116.922 54.5604 -115.523 57.3591 -113.425C60.1578 -111.327 62.9565 -105.733 66.455 -98.0405L75.9006 -75.3129L107.736 0.91188H110.884L152.865 -97.3412C153.915 -99.7888 154.964 -101.887 156.014 -103.985L161.961 -117.971L170.357 -137.202C170.707 -137.901 171.057 -138.6 171.057 -139.3L179.103 -158.181H225.282L232.628 -141.048C235.077 -135.454 236.127 -131.258 236.127 -128.81C236.127 -126.712 235.427 -125.314 233.678 -123.915C231.929 -122.516 228.78 -121.817 224.232 -121.467H177.354V-118.32C182.252 -117.971 186.1 -116.572 188.899 -114.474C191.697 -112.376 194.496 -106.782 197.994 -99.0894L239.625 0.212524H242.774L284.754 -98.0405C285.804 -100.488 286.853 -102.586 287.903 -104.684L295.25 -121.817L302.246 -137.551C302.596 -138.251 302.946 -138.95 302.946 -139.649L310.992 -158.531H356.821L364.168 -141.398C366.617 -135.803 367.666 -131.607 367.666 -129.16C367.666 -127.062 366.966 -125.663 365.217 -124.265C363.468 -122.866 360.32 -122.167 355.772 -121.817H308.543V-118.67C313.441 -118.32 317.289 -116.922 320.088 -114.824C322.887 -112.726 325.686 -107.132 329.184 -99.4391L338.63 -76.7115L370.465 -0.486771H373.613L415.594 -98.7398C416.644 -101.187 417.693 -103.285 418.743 -105.383L424.69 -119.369L433.086 -138.6C433.436 -139.3 433.786 -139.999 433.786 -140.698L441.832 -159.58H488.011L495.357 -142.447C497.806 -136.852 498.856 -132.656 498.856 -130.209C498.856 -128.111 498.156 -126.712 496.407 -125.314C494.658 -123.915 491.509 -123.216 486.961 -122.866H440.083V-119.719C444.981 -119.369 448.829 -117.971 451.628 -115.873C454.426 -113.775 457.225 -108.18 460.723 -100.488L502.354 -1.18608H505.503L547.483 -99.4391C548.533 -101.887 549.582 -103.985 550.632 -106.083L557.979 -123.216L564.975 -138.95C565.325 -139.649 565.675 -140.349 565.675 -141.048L573.721 -159.929H601.359V-166.573H576.17L596.811 -214.825L601.009 -204.685V-237.203H599.959L555.18 -138.95C554.13 -136.503 553.081 -134.405 552.031 -132.307L544.685 -115.174L537.688 -99.4391C537.338 -98.7398 536.988 -98.0405 536.988 -97.3412L528.942 -78.4598H482.763L475.417 -95.5929C472.968 -101.187 471.918 -105.383 471.918 -107.831C471.918 -109.929 472.618 -111.327 474.367 -112.726C476.116 -114.125 479.265 -114.824 483.813 -115.174H530.691V-118.32C525.793 -118.67 521.945 -120.069 519.146 -122.167C516.348 -124.614 513.549 -129.859 510.051 -137.551L468.42 -236.853H465.971L423.99 -138.6C422.941 -136.153 421.891 -134.055 420.842 -131.957L414.894 -117.971L406.498 -98.7398C406.148 -98.0405 405.799 -97.3412 405.799 -96.6419L397.752 -77.7605H351.574L344.227 -94.8936C341.778 -100.488 340.729 -104.684 340.729 -107.132C340.729 -109.229 341.428 -110.628 343.177 -112.027C344.927 -113.425 348.075 -114.125 352.623 -114.474H399.502V-117.621C394.604 -117.971 390.756 -119.369 387.957 -121.467C385.158 -123.915 382.359 -129.16 378.861 -136.852L337.23 -236.154H334.082L292.101 -137.901C291.051 -135.454 290.002 -133.356 288.952 -131.258L281.606 -114.125L274.609 -98.3902C274.259 -97.6908 273.909 -96.9915 273.909 -96.2922L265.863 -77.4109H219.684L212.338 -94.5439C209.889 -100.138 208.839 -104.334 208.839 -106.782C208.839 -108.88 209.539 -110.278 211.288 -111.677C213.037 -113.076 216.186 -113.775 220.734 -114.125H267.612V-117.271C262.715 -117.621 258.866 -119.02 256.068 -121.118C253.269 -123.565 250.47 -128.81 246.972 -136.503L205.341 -235.805H202.192L160.212 -137.551C159.162 -135.104 158.113 -133.006 157.063 -130.908L151.116 -116.922L142.72 -97.6908C142.37 -96.9915 142.02 -96.2922 142.02 -95.5929L133.974 -76.7115H87.7951L80.4485 -93.8446C77.9996 -99.4391 76.9501 -103.635 76.9501 -106.083C76.9501 -108.18 77.6498 -109.579 79.399 -110.978C81.1481 -112.376 84.2967 -113.076 88.8446 -113.425H135.723V-116.572C130.825 -116.922 126.977 -118.32 124.178 -120.418C121.38 -122.866 118.581 -128.111 115.083 -135.803L73.4517 -235.105H70.3032L28.3225 -136.852C27.273 -134.405 26.2234 -132.307 25.174 -130.209L17.8274 -113.076L10.8306 -97.3412C10.4807 -96.6419 10.1309 -95.9426 10.1309 -95.2432L2.08459 -76.3619H-44.0941L-51.4407 -93.495C-53.8896 -99.0894 -54.9391 -103.285 -54.9391 -105.733C-54.9391 -107.831 -54.2395 -109.229 -52.4903 -110.628C-50.7411 -112.027 -47.5925 -112.726 -43.0446 -113.076H3.8338V-116.223C-1.06393 -116.572 -4.91217 -117.971 -7.71088 -120.069C-10.5096 -122.516 -13.3083 -127.761 -16.8067 -135.454L-58.4375 -234.756H-61.5861L-103.567 -136.503C-104.616 -134.055 -105.666 -131.957 -106.715 -129.859L-112.663 -115.873L-121.059 -96.6419C-121.409 -95.9426 -121.758 -95.2432 -121.758 -94.5439L-129.805 -75.6626H-172.135L-179.482 -92.7956C-181.931 -98.3901 -182.98 -102.586 -182.98 -105.034C-182.98 -107.132 -182.28 -108.53 -180.531 -109.929C-178.782 -111.327 -175.634 -112.027 -171.086 -112.376H-124.207V-115.523C-129.105 -115.873 -132.953 -117.272 -135.752 -119.369C-138.551 -121.817 -141.349 -127.062 -144.848 -134.754L-185.429 -237.203H-188.578L-230.558 -138.95C-231.608 -136.503 -232.657 -134.405 -233.707 -132.307L-241.053 -115.174L-248.05 -99.4391C-248.4 -98.7398 -248.75 -98.0405 -248.75 -97.3412L-256.796 -78.4598H-302.975L-310.322 -95.5929C-312.77 -101.187 -313.82 -105.383 -313.82 -107.831C-313.82 -109.929 -313.12 -111.327 -311.371 -112.726C-309.622 -114.125 -306.473 -114.824 -301.925 -115.174H-255.047V-118.32C-259.945 -118.67 -263.793 -120.069 -266.592 -122.167C-269.39 -124.614 -272.189 -129.859 -275.687 -137.551L-316.619 -237.203H-319.767L-361.748 -138.95C-362.797 -136.503 -363.847 -134.405 -364.896 -132.307L-370.844 -118.32L-379.24 -99.0894C-379.59 -98.3901 -379.939 -97.6908 -379.939 -96.9915L-387.636 -78.4598H-433.815L-441.161 -95.5929C-443.61 -101.187 -444.66 -105.383 -444.66 -107.831C-444.66 -109.929 -443.96 -111.327 -442.211 -112.726C-440.462 -114.125 -437.313 -114.824 -432.765 -115.174H-385.887V-118.32C-390.784 -118.67 -394.633 -120.069 -397.431 -122.167C-400.23 -124.614 -403.029 -129.859 -406.527 -137.551L-447.458 -237.203H-449.557V-199.44L-433.815 -161.678H-449.557V-155.034H-431.366L-424.019 -137.901C-421.57 -132.307 -420.521 -128.111 -420.521 -125.663C-420.521 -123.565 -421.22 -122.167 -422.97 -120.768C-424.719 -119.369 -427.867 -118.67 -432.415 -118.32H-449.557V-72.5157L-417.722 3.70908H-414.573ZM526.143 -72.166L505.503 -23.9136L485.212 -72.166H526.143ZM462.822 -209.93L483.113 -161.678H442.182L462.822 -209.93ZM394.954 -72.166L374.313 -23.9136L354.022 -72.166H394.954ZM331.633 -209.93L335.831 -199.79L351.574 -162.027H336.181V-161.678H310.992L331.633 -209.93ZM264.114 -72.166L243.473 -23.9136L223.183 -72.166H264.114ZM200.793 -209.93L221.084 -161.678H180.153L200.793 -209.93ZM133.274 -72.166L112.634 -23.9136L92.343 -72.166H133.274ZM69.9533 -209.93L74.1514 -199.79L89.8941 -162.027H74.5012V-161.678H49.3129L69.9533 -209.93ZM2.43442 -72.166L-18.2061 -23.9136L-38.4967 -72.166H2.43442ZM-60.8864 -209.93L-40.5957 -161.678H-81.5269L-60.8864 -209.93ZM-128.755 -72.166L-149.396 -23.9136L-169.686 -72.166H-128.755ZM-191.726 -209.58L-187.528 -199.44L-171.785 -161.678H-212.716L-191.726 -209.58ZM-259.595 -72.166L-280.235 -23.9136L-300.526 -72.166H-259.595ZM-322.916 -209.93L-302.625 -161.678H-343.556L-322.916 -209.93ZM-390.435 -72.166L-411.075 -23.9136L-431.366 -72.166H-390.435Z" fill="#E5E7EB"/>
<path d="M-404.428 64.1996C-403.379 61.752 -402.329 59.6541 -401.28 57.5562L-393.933 40.4231L-386.936 24.6886C-386.586 23.9893 -386.237 23.29 -386.237 22.5907L-378.19 3.70929H-332.012L-324.665 20.8424C-322.216 26.4369 -321.167 30.6328 -321.167 33.0803C-321.167 35.1783 -321.866 36.5769 -323.615 37.9755C-325.365 39.3741 -328.513 40.0734 -333.411 40.4231H-380.639V43.57C-375.741 43.9196 -371.893 45.3182 -369.094 47.4162C-366.296 49.5141 -363.497 55.1086 -359.999 62.801L-318.368 161.753H-315.219L-273.239 63.85C-272.189 61.4024 -271.14 59.3044 -270.09 57.2065L-262.743 40.0734L-255.747 24.339C-255.397 23.6397 -255.047 22.9403 -255.047 22.241L-247.001 3.35967H-200.822L-193.475 20.4927C-191.026 26.0872 -189.977 30.2831 -189.977 32.7307C-189.977 34.8286 -190.677 36.2272 -192.426 37.6259C-194.175 39.0245 -197.324 39.7238 -202.221 40.0734H-249.799V43.2203C-244.902 43.57 -241.053 44.9686 -238.255 47.0665C-235.456 49.5141 -232.657 54.7589 -229.159 62.4513L-187.528 161.404H-184.379L-142.399 63.5003C-141.349 61.0527 -140.3 58.9548 -139.25 56.8569L-131.904 39.7238L-124.907 23.9893C-124.557 23.29 -124.207 22.5907 -124.207 21.8914L-116.161 3.00999H-69.9822L-62.6356 20.1431C-60.1867 25.7376 -59.1372 29.9335 -59.1372 32.381C-59.1372 34.479 -59.8369 35.8776 -61.5861 37.2762C-63.3352 38.6748 -66.4838 39.3741 -71.3816 39.7238H-118.61V42.8707C-113.712 43.2203 -109.864 44.6189 -107.065 46.7169C-104.266 48.8148 -101.468 54.4093 -97.9693 62.1017L-56.3385 161.054H-53.1899L-11.2093 63.1506C-10.1597 60.703 -9.11023 58.6051 -8.06073 56.5072L-0.714081 39.3741L6.28268 23.6397C6.63254 22.9404 6.98236 22.241 6.98236 21.5417L15.0287 2.66037H61.2074L68.554 19.7934C71.0029 25.3879 72.0524 29.5838 72.0524 32.0314C72.0524 34.1293 71.3527 35.5279 69.6035 36.9265C67.8543 38.3251 64.7058 39.0245 59.808 39.3741H12.9296V42.521C17.8274 42.8707 21.6756 44.2693 24.4743 46.3672C27.273 48.8148 30.0717 54.0596 33.5701 61.752L75.2009 160.704H78.3495L120.33 62.801C121.38 60.3534 122.429 58.2555 123.479 56.1575L130.825 39.0245L137.822 23.29C138.172 22.5907 138.522 21.8913 138.522 21.192L146.568 2.31069H192.747L200.093 19.4438C202.542 25.0382 203.592 29.2341 203.592 31.6817C203.592 33.7796 202.892 35.1783 201.143 36.5769C199.394 37.9755 196.245 38.6748 191.347 39.0245H144.469V42.1713C149.367 42.521 153.215 43.9196 156.014 46.0176C158.812 48.1155 161.611 53.7099 165.109 61.4024L206.74 160.355H209.889L251.87 62.4513C252.919 60.0037 253.969 57.9058 255.018 55.8079L262.365 38.6748L269.362 22.9403C269.711 22.241 270.061 21.5417 270.061 20.8424L278.107 1.96101H322.537L329.884 19.0941C332.333 24.6886 333.382 28.8845 333.382 31.3321C333.382 33.43 332.682 34.8286 330.933 36.2272C329.184 37.6258 326.035 38.3251 321.138 38.6748H274.259V41.8217C279.157 42.1714 283.005 43.57 285.804 45.6679C288.603 48.1155 291.401 53.3603 294.9 61.0527L336.531 160.005H339.679L381.66 62.1017C382.709 59.6541 383.759 57.5562 384.808 55.4582L392.155 38.3252L399.152 22.5907C399.502 21.8914 399.851 21.192 399.851 20.4927L407.898 1.6114H454.076L461.423 18.7445C463.872 24.3389 464.921 28.5348 464.921 30.9824C464.921 33.0803 464.222 34.479 462.473 35.8776C460.723 37.2762 457.575 37.9755 452.677 38.3252H405.799V41.472C410.696 41.8217 414.545 43.2203 417.343 45.3183C420.142 47.7658 422.941 53.0107 426.439 60.703L468.07 159.655H471.219L513.199 61.752C514.249 59.3044 515.298 57.2065 516.348 55.1086L523.694 37.9755L530.691 22.241C531.041 21.5417 531.391 20.8424 531.391 20.1431L539.437 1.26172H585.616L592.963 18.3948C595.411 23.9893 596.461 28.1852 596.461 30.6328C596.461 32.7307 595.761 34.1293 594.012 35.5279C592.263 36.9265 589.114 37.6258 584.217 37.9755H535.939V41.1224C540.837 41.4721 544.685 42.8707 547.483 44.9686C550.282 47.4162 553.081 52.661 556.579 60.3534L598.21 159.306V117.347L584.217 84.1299H598.21V77.4865H581.768L574.421 60.3534C571.972 54.759 570.923 50.5631 570.923 48.1155C570.923 46.0176 571.622 44.6189 573.371 43.2203C575.121 41.8217 578.269 41.1224 583.167 40.7727H598.21V-9.57755L568.124 -81.2568H564.975V-78.4596L522.995 19.7934C521.945 22.241 520.896 24.3389 519.846 26.4369L512.5 43.57L505.503 59.3045C505.153 60.0038 504.803 60.703 504.803 61.4024L496.757 80.2838H450.578L443.231 63.1506C440.783 57.5562 439.733 53.3603 439.733 50.9127C439.733 48.8148 440.433 47.4162 442.182 46.0176C443.931 44.6189 447.08 43.9196 451.977 43.57H498.856V40.4231C493.958 40.0734 490.11 38.6748 487.311 36.5769C484.512 34.1293 481.714 28.8844 478.215 21.192L437.284 -78.4596H434.136L392.155 19.7934C391.105 22.241 390.056 24.3389 389.006 26.4369L381.66 43.57L374.663 59.3045C374.313 60.0038 373.963 60.703 373.963 61.4024L365.917 80.2838H319.738L312.392 63.1506C309.943 57.5562 308.893 53.3603 308.893 50.9127C308.893 48.8148 309.593 47.4162 311.342 46.0176C313.091 44.6189 316.24 43.9196 321.138 43.57H368.016V40.4231C363.118 40.0734 359.27 38.6748 356.471 36.5769C353.673 34.1293 350.874 28.8844 347.376 21.192L335.831 -6.43068L305.745 -78.1099H302.596L260.616 20.1431C259.566 22.5907 258.517 24.6886 257.467 26.7865L250.12 43.9196L243.124 59.6541C242.774 60.3534 242.424 61.0527 242.424 61.752L234.378 80.6334H188.199L180.852 63.5003C178.403 57.9058 177.354 53.71 177.354 51.2624C177.354 49.1645 178.054 47.7659 179.803 46.3672C181.552 44.9686 184.701 44.2693 189.598 43.9196H236.477V40.7727C231.579 40.4231 227.731 39.0244 224.932 36.9265C222.133 34.4789 219.335 29.2341 215.836 21.5417L175.255 -78.4596H172.106L130.126 19.4438C129.076 21.8913 128.027 23.9893 126.977 26.0872L119.63 43.2203L112.634 58.9548C112.284 59.6541 111.934 60.3534 111.934 61.0527L103.888 79.9341H57.709L50.3624 62.801C47.9135 57.2065 46.864 53.0107 46.864 50.5631C46.864 48.4651 47.5637 47.0665 49.3129 45.6679C51.0621 44.2693 54.2106 43.57 59.1083 43.2203H105.987V40.0734C101.089 39.7238 97.2408 38.3251 94.4421 36.2272C91.6434 33.7796 88.8447 28.5348 85.3463 20.8424L73.8016 -6.78036L43.7155 -78.4596H40.5669L-1.41376 19.7934C-2.46326 22.241 -3.51282 24.3389 -4.56235 26.4369L-11.9089 43.57L-18.9057 59.3045C-19.2556 60.0038 -19.6054 60.703 -19.6054 61.4024L-27.6517 80.2838H-73.8304L-81.177 63.1506C-83.6259 57.5562 -84.6754 53.3603 -84.6754 50.9127C-84.6754 48.8148 -83.9757 47.4162 -82.2266 46.0176C-80.4774 44.6189 -77.3288 43.9196 -72.4311 43.57H-25.5527V40.4231C-30.4504 40.0734 -34.2986 38.6748 -37.0973 36.5769C-39.8961 34.1293 -42.6948 28.8844 -46.1931 21.192L-86.7745 -78.4596H-89.923L-131.904 19.7934C-132.953 22.241 -134.003 24.3389 -135.052 26.4369L-142.399 43.57L-149.396 59.3045C-149.745 60.0038 -150.095 60.703 -150.095 61.4024L-158.142 80.2838H-204.32L-211.667 63.1506C-214.116 57.5562 -215.165 53.3603 -215.165 50.9127C-215.165 48.8148 -214.466 47.4162 -212.716 46.0176C-210.967 44.6189 -207.819 43.9196 -202.921 43.57H-156.043V40.4231C-160.94 40.0734 -164.789 38.6748 -167.587 36.5769C-170.386 34.1293 -173.185 28.8844 -176.683 21.192L-188.228 -6.43068L-217.614 -78.4596H-220.763L-262.743 19.7934C-263.793 22.241 -264.842 24.3389 -265.892 26.4369L-273.239 43.57L-280.235 59.3045C-280.585 60.0038 -280.935 60.703 -280.935 61.4024L-288.981 80.2838H-334.81L-342.157 63.1506C-344.606 57.5562 -345.655 53.3603 -345.655 50.9127C-345.655 48.8148 -344.956 47.4162 -343.206 46.0176C-341.457 44.6189 -338.309 43.9196 -333.411 43.57H-286.532V40.4231C-291.43 40.0734 -295.278 38.6748 -298.077 36.5769C-300.876 34.1293 -303.675 28.8844 -307.173 21.192L-348.454 -78.4596H-351.602L-393.583 19.7934C-394.633 22.241 -395.682 24.3389 -396.732 26.4369L-404.078 43.57L-411.075 59.3045C-411.425 60.0038 -411.775 60.703 -411.775 61.4024L-419.821 80.2838H-449.557V86.9272H-422.62L-443.26 134.83L-449.557 119.795V162.103H-446.409L-404.428 64.1996ZM561.827 -51.1865L582.117 -2.93413H541.186L561.827 -51.1865ZM493.958 86.5775L473.318 134.83L453.027 86.5775H493.958ZM430.637 -51.1865L450.928 -2.93413H409.997L430.637 -51.1865ZM336.181 86.5775H363.118L342.478 134.83L336.181 119.795L322.187 86.5775H336.181ZM299.797 -51.1865L320.088 -2.93413H279.157L299.797 -51.1865ZM232.279 86.5775L211.638 134.83L191.347 86.5775H232.279ZM168.958 -51.1865L189.248 -2.93413H148.317L168.958 -51.1865ZM74.1514 86.5775H101.089L80.4485 134.83L74.1514 119.795L60.1579 86.5775H74.1514ZM37.7682 -51.1865L58.0589 -2.93413H17.1277L37.7682 -51.1865ZM-29.7507 86.5775L-50.3912 134.83L-70.6819 86.5775H-29.7507ZM-93.0716 -51.1865L-72.7809 -2.93413H-113.712L-93.0716 -51.1865ZM-187.528 86.5775H-160.59L-181.231 134.83L-187.528 119.795L-201.522 86.5775H-187.528ZM-223.911 -51.1865L-203.621 -2.93413H-244.552L-223.911 -51.1865ZM-291.43 86.5775L-312.071 134.83L-332.361 86.5775H-291.43ZM-355.101 -51.1865L-334.81 -2.93413H-375.741L-355.101 -51.1865Z" fill="#E5E7EB"/>
</svg>
