<?xml version="1.0" encoding="UTF-8"?>
<svg id="Layer_1" xmlns="http://www.w3.org/2000/svg" version="1.1" viewBox="0 0 567.8 525.5">
  <!-- Generator: Adobe Illustrator 29.3.1, SVG Export Plug-In . SVG Version: 2.1.0 Build 151)  -->
  <defs>
    <style>
      .st0 {
        fill: #1fd3c8;
      }

      .st1 {
        fill: #6b22d4;
      }
    </style>
  </defs>
  <path class="st1" d="M369.6,132.9h15.9c39.7,7.3,81.9,27.2,104.2,61.5,31.7,48.8,25,110.4-1.9,159.5-32.1,58.7-91.6,122.8-150.4,154.7-7.1,3.9-16,8.5-23.5,11.7-4.8,2.1-10,3.6-15,5.1-.9-.9,6-12.9,6.9-15,13.4-32,18.6-79.7,13.3-114-4.3-27.6-18.2-58.9-30.3-84.2-15.1-31.6-51.6-61.2-79.9-80.7-3.2-2.2-9.3-3.5-8.9-8.2,16.4,2.6,32.2,8.6,46.7,16.6,21.1,11.7,37.9,29.4,58.1,42.1,28.9,18.3,73.7,39.5,107.4,23.6,23.3-11,32-34.5,36.6-58.4,6.1-31.5,2.4-61.3-21.6-84.1-16.6-15.7-32.5-21.8-54-28.6-.3,0-1.7-1.6-3.5-1.8h0Z"/>
  <path class="st0" d="M369.6,132.9c1.7.2,3.2,1.7,3.5,1.8,21.5,6.8,37.5,12.9,54,28.6,24.1,22.8,27.7,52.6,21.6,84.1-1.8.3-1.2-.9-1.2-2.1-1.9-51.8-51.5-55.1-92.6-52.5-21.5,1.4-41.9,9.4-61.6,17.6-8.8,3.6-8.9,5.9-19.8,3.9-20.1-3.8-40.8-13.2-61.4-16.6-46.9-7.6-92.2,22.1-99.1,69.8-7.5,52,11.7,84.8,34.3,128.6,2.1,4,3.9,8.2,6,12.1,16.3,29.9,45.4,57.6,70.5,79.9,5.4,4.8,11.7,9.3,16.9,14.1.4.3,2.9,2.5,2.3,3-.3.2-4.5-1.4-5.2-1.7-31.5-14.3-60.6-30.9-88.1-51.8-24.9-19-47-42.4-66.1-66.8-32.6-41.5-50.9-98.6-38.1-151.2,8.5-34.8,36.9-60.3,67-77.4,34.3-19.5,59.8-21.7,99.2-15.1,21.4,3.6,43.1,9,63,16.9,1,.4,3,1.4,4,1.3.7,0,6.2-3.6,7.7-4.3,23.9-11.2,56.1-25.3,83.1-22.1h0Z"/>
  <path class="st0" d="M261.3,304.1c32.7,38.1,50,99.6,47.7,149.8-1.2,27.4-8.5,47-26.2,67-.2.2-2.8,5-3.2,1.9-1-7.4-.7-16.4-1.8-24-3.5-24.2-17.7-39.3-34.5-54.8-24.1-22-52.9-42.4-78.5-63.2-4.3-3.5-8.5-7.2-12.8-10.9-.3-1.4,1.3-1,2-.9,7.9,1.5,17.2,6,25.3,7.7,2.6.6,5.3.3,7.7.7,19.5,3.2,48.1,9,62-9.3,11.7-15.5,9.7-40.3,7.1-58.6-.6-4-2.2-7.7-1.7-11.8,3.4.9,4.8,4,6.8,6.4h0Z"/>
  <path class="st1" d="M367.6,1.8c3,1.4,8.2,3.1,11.4,5.4,36.2,26.6-2.5,94.8-42.7,92.7-18.5-1-27.2-17-28.4-33.9-1.6-21.1,11.5-62.4,36.2-65.7,5.6-.7,18.7-.7,23.5,1.4h0Z"/>
  <path class="st0" d="M211.1,13.9c3.6,2.3,10.8,11.2,13.3,15.2,11.6,19.2,21.5,61.2-6,71-.4.2-.4,1-.9,1.1-6.8,2-20,.8-26.5-2.1-25.3-11.3-51.2-50.5-31.1-76.6,10.6-13.8,36.4-17.9,51.2-8.6h0Z"/>
  <path class="st1" d="M414.7,281.2c-25.5,32.9-75.4,12.5-72.7-28.7.8-12,9.1-24.8,19.6-30.8,39.3-22.3,80.6,24,53.1,59.4Z"/>
  <path class="st0" d="M232.7,306.3c14,13.4,14.8,34.5,1.6,48.9-20.7,22.7-59.5,7-59.6-23-.2-29.1,36.5-46.4,58-25.9h0Z"/>
  <path class="st1" d="M444.3,28.9c2.5,1.1,7.4,4.8,8.8,7.1,1.8,2.7,3.7,8.9,4,12.1.8,7.7-.9,14.5-2.8,21.7-2.6,9.9-8.7,23-19.2,26.3-21,6.7-42-5.9-38.9-29.3,2.8-21.3,24.7-48.7,48.2-38Z"/>
  <path class="st0" d="M130.8,45.7c12.2,6.7,24.6,26.5,22.8,40.6-2,16.3-20,25.7-35.4,21.4-.5-.1-.3-1-.9-1.2-10.5-2.8-17.6-15.5-20.7-25.9-3.5-11.7-5.2-28.3,6.8-35.4,8.7-5.1,18.6-4.3,27.3.5h0Z"/>
  <path class="st1" d="M498.3,72c.6.3,3.8,3.1,4.3,3.8,9.1,11.5,6.3,25.7-2.1,36.6-4.1,5.4-15.9,11.3-22.6,10.3-6.7-.9-15.4-7.1-18-13.8-8.5-22.3,16.1-49.3,38.4-36.9h0Z"/>
  <path class="st0" d="M87.6,93.6c5.4,4.6,9.4,12.7,9.8,19.9,1.6,26.7-30.5,30.6-43.6,10.1-16-24.9,10.8-49.7,33.8-29.9Z"/>
  <path class="st1" d="M530.6,110.4c6.2,4.1,8.5,14.2,6.2,21-3.6,10.9-13.5,16.4-24.8,15.2-5.6-.6-11-6.5-11.7-12.3-.9-7.7,1.3-16.4,7.6-21.2s15.4-7.6,22.7-2.8h0Z"/>
  <path class="st1" d="M562.8,154.2c7.3,7.3,5.8,17.4-.4,25-4.7,5.9-12.4,9.2-20.5,6.9-2.2-.6-6-3.1-7.3-4.9-11.8-16.4,12.6-42.6,28.2-27h0Z"/>
  <path class="st0" d="M51.2,135.5c.2.2,3.3,4,3.5,4.3,9.5,14-.2,31.2-17.3,26.6-4.9-1.3-12-7.2-13.9-11.9-2.3-5.7-2.2-14.7,2.1-19.4s12.7-5.4,18.4-3.5c.7.2,6.8,3.6,7.2,3.9h0Z"/>
  <path class="st0" d="M244,505.1c.4.2.4.4,0,.6v-.6Z"/>
  <path class="st0" d="M31.3,201.9c7.3-7.3,5.8-17.4-.3-25-4.7-5.9-12.4-9.2-20.5-6.9-2.2.6-6,3.1-7.3,4.9-11.8,16.4,12.6,42.6,28.2,27Z"/>
</svg>