<?xml version="1.0" encoding="UTF-8"?> <svg xmlns="http://www.w3.org/2000/svg" width="226" height="226" viewBox="0 0 226 226" fill="none"><path d="M209.946 57.4567C213.989 50.3767 215 43.1281 215 40.3888C213.989 44.9402 206.155 55.771 202.364 60.6174L187.833 78.3174C188.044 77.6853 188.844 75.536 190.36 71.996C191.877 68.456 190.992 65.0424 190.36 63.7781C188.886 61.0388 183.79 53.5374 175.197 45.4459C164.457 35.3317 148.03 30.2745 137.29 28.3781C128.698 26.8609 126.55 30.2745 126.55 32.1709C125.497 38.4924 123.012 53.0317 121.495 60.6174C119.6 70.0995 117.705 84.0067 118.968 88.4317C120.232 92.8567 122.127 99.8103 129.708 108.66C135.774 115.74 139.817 114.982 141.081 113.717L160.666 102.339L141.081 120.671C144.45 125.096 153.716 135.463 163.825 141.532C176.461 149.117 175.829 153.542 173.934 157.335C172.417 160.37 164.457 158.6 160.666 157.335C151.611 153.753 131.73 145.577 124.654 141.532C117.578 137.486 113.282 139.003 112.018 140.267C98.7508 147.642 67.9195 164.036 50.7348 170.61C21.0407 177.564 19.1454 173.139 17.25 166.185C15.7337 160.622 20.8301 148.275 23.5678 142.796C16.8287 150.382 5.11957 167.323 12.1956 174.403C21.0407 183.253 34.94 181.989 46.944 176.932C56.5472 172.886 59.3692 173.56 59.5798 174.403C63.1599 177.775 71.0784 185.023 74.111 187.046C77.9017 189.575 87.3785 193.368 103.805 196.528C139.817 200.321 163.825 180.093 166.984 176.932C170.143 173.771 183.411 157.335 185.938 154.807C188.465 152.278 198.573 138.371 201.101 125.096C203.628 111.821 201.101 94.121 198.573 87.1674C196.552 81.6046 197.731 77.6853 198.573 76.421C200.679 73.0495 205.902 64.5367 209.946 57.4567Z" fill="url(#paint0_linear_2360_74)"></path><path d="M73.4792 154.807C82.0715 151.772 96.8554 141.742 103.173 137.107C110.755 131.862 103.384 131.55 98.7508 132.05L86.115 133.946C80.4289 134.578 68.6777 134.072 67.1614 126.992C65.266 118.142 67.1614 110.557 74.7428 100.442C82.3243 90.3281 84.8515 81.4781 86.115 77.0531C87.3786 72.6281 86.7468 58.721 86.115 51.7674C85.6096 46.2045 82.9561 46.4995 81.6925 47.3424L72.8475 55.5602C65.4766 63.7781 49.9766 84.6388 46.9441 102.339C43.1533 124.464 46.9441 145.957 50.7348 154.807C54.5255 163.657 62.7388 158.6 73.4792 154.807Z" fill="#01548A"></path><path d="M110.755 108.028L103.805 114.35C103.384 117.089 102.794 122.694 103.805 123.2C105.069 123.832 106.964 125.096 109.491 127.625C111.513 129.647 113.282 128.467 113.914 127.625V123.832C113.914 121.809 115.598 117.089 116.441 114.982C117.073 113.507 117.957 110.051 116.441 108.028C114.925 106.005 112.018 107.185 110.755 108.028Z" fill="#05AD5B"></path><path d="M72.2156 114.35C71.7102 111.821 74.9534 106.975 76.6382 104.867C77.7522 103.35 80.0507 102.128 81.0607 101.707C83.1667 101.707 88.3895 102.592 92.4329 106.132C97.4872 110.557 93.0647 113.717 97.4872 115.614C101.91 117.51 101.91 118.775 101.91 120.039C101.91 121.303 98.7508 122.567 95.5919 121.935C93.0647 121.43 89.4846 121.725 88.0104 121.935C85.4832 122.357 79.9235 123.073 77.9018 122.567C75.3746 121.935 72.8474 117.51 72.2156 114.35Z" fill="#05AD5B"></path><path d="M109.491 32.1709C107.975 32.1709 99.5932 36.3852 95.5919 38.4924C94.0756 39.2807 94.1177 43.0351 94.3283 44.8138V62.5138C94.3283 69.0881 93.9071 71.1531 93.6965 71.3638L89.9058 77.6853C88.6422 79.5817 86.3678 83.7538 87.3786 85.271C88.6422 87.1674 89.9058 86.5353 94.3283 85.271C97.8663 84.2596 100.857 86.1138 101.91 87.1674C102.752 88.221 105.069 90.3281 107.596 90.3281C110.755 90.3281 110.755 85.271 110.755 82.1103C110.755 78.9496 112.018 62.5138 112.018 57.4567C112.018 52.3995 113.282 44.8138 113.914 38.4924C114.546 32.1709 111.387 32.1709 109.491 32.1709Z" fill="#05AD5B"></path><path d="M149.294 138.371C143.734 134.831 131.393 120.882 125.918 114.35C123.77 111.821 122.759 113.085 121.495 113.085C120.232 113.085 117.705 116.246 117.073 120.671C116.441 125.096 117.073 128.889 121.495 130.153C125.033 131.165 132.657 134.789 136.026 136.475C136.869 138.582 139.312 143.555 142.344 146.589C145.377 149.623 152.874 149.117 156.244 148.485C155.822 148.907 156.244 150.255 161.298 152.278C170.901 156.324 169.511 152.278 167.616 149.75C163.825 147.432 154.854 141.911 149.294 138.371Z" fill="#05AD5B"></path><path d="M90.5376 101.707C88.5158 101.201 87.5892 99.8103 87.3786 99.1781C86.8732 98.3539 87.5892 95.4633 88.0104 94.121C90.5376 89.2746 97.1082 81.9838 103.173 91.5924C110.755 103.603 108.859 104.867 108.859 106.764C108.859 108.281 105.069 111.61 103.173 113.085C101.91 113.507 99.0035 114.097 97.4873 113.085C95.5919 111.821 96.2237 108.028 95.5919 104.867C94.9601 101.707 93.0647 102.339 90.5376 101.707Z" fill="#05AD5B"></path><defs><linearGradient id="paint0_linear_2360_74" x1="112.5" y1="28" x2="42.7991" y2="132.268" gradientUnits="userSpaceOnUse"><stop stop-color="#01548A"></stop><stop offset="1" stop-color="#105A8A"></stop></linearGradient></defs></svg> 